<?xml version="1.0" encoding="utf-8" standalone="no"?>
<!DOCTYPE svg PUBLIC "-//W3C//DTD SVG 1.1//EN"
  "http://www.w3.org/Graphics/SVG/1.1/DTD/svg11.dtd">
<svg xmlns:xlink="http://www.w3.org/1999/xlink" width="334.4096pt" height="444.27pt" viewBox="0 0 334.4096 444.27" xmlns="http://www.w3.org/2000/svg" version="1.1">
 <metadata>
  <rdf:RDF xmlns:dc="http://purl.org/dc/elements/1.1/" xmlns:cc="http://creativecommons.org/ns#" xmlns:rdf="http://www.w3.org/1999/02/22-rdf-syntax-ns#">
   <cc:Work>
    <dc:type rdf:resource="http://purl.org/dc/dcmitype/StillImage"/>
    <dc:date>2026-08-22T18:23:23.101803</dc:date>
    <dc:format>image/svg+xml</dc:format>
    <dc:creator>
     <cc:Agent>
      <dc:title>Matplotlib v3.10.9, https://matplotlib.org/</dc:title>
     </cc:Agent>
    </dc:creator>
   </cc:Work>
  </rdf:RDF>
 </metadata>
 <defs>
  <style type="text/css">*{stroke-linejoin: round; stroke-linecap: butt}</style>
 </defs>
 <g id="figure_1">
  <g id="patch_1">
   <path d="M 0 444.27 
L 334.4096 444.27 
L 334.4096 0 
L 0 0 
z
" style="fill: #ffffff"/>
  </g>
  <g id="axes_1">
   <g id="patch_2">
    <path d="M 70.5296 59.198897 
L 327.2096 59.198897 
L 327.2096 7.2 
L 70.5296 7.2 
z
" style="fill: #ffffff"/>
   </g>
   <g id="line2d_1">
    <path d="M 70.5296 56.976721 
L 327.2096 56.976721 
" clip-path="url(#pb7951b10da)" style="fill: none; stroke: #cccccc; stroke-width: 0.6; stroke-linecap: square"/>
   </g>
   <g id="patch_3">
    <path d="M 198.8696 59.198897 
L 263.0396 59.198897 
L 263.0396 7.2 
L 198.8696 7.2 
z
" clip-path="url(#pb7951b10da)" style="fill: #f5b7b1; opacity: 0.25; stroke: #f5b7b1; stroke-linejoin: miter"/>
   </g>
   <g id="line2d_2">
    <path d="M 134.6996 59.198897 
L 134.6996 7.2 
" clip-path="url(#pb7951b10da)" style="fill: none; stroke-dasharray: 0.6,0.99; stroke-dashoffset: 0; stroke: #cccccc; stroke-width: 0.6"/>
   </g>
   <g id="line2d_3">
    <path d="M 198.8696 59.198897 
L 198.8696 7.2 
" clip-path="url(#pb7951b10da)" style="fill: none; stroke-dasharray: 0.6,0.99; stroke-dashoffset: 0; stroke: #cccccc; stroke-width: 0.6"/>
   </g>
   <g id="line2d_4">
    <path d="M 263.0396 59.198897 
L 263.0396 7.2 
" clip-path="url(#pb7951b10da)" style="fill: none; stroke-dasharray: 0.6,0.99; stroke-dashoffset: 0; stroke: #cccccc; stroke-width: 0.6"/>
   </g>
   <g id="FillBetweenPolyCollection_1">
    <defs>
     <path id="m4207e5279b" d="M 70.5296 -387.642165 
L 70.5296 -387.24494 
L 73.20335 -386.808138 
L 75.8771 -386.09785 
L 78.55085 -386.024103 
L 81.2246 -387.062087 
L 83.89835 -388.934552 
L 86.5721 -391.31057 
L 89.24585 -394.066504 
L 91.9196 -397.096338 
L 94.59335 -400.28614 
L 97.2671 -403.624889 
L 99.94085 -407.285951 
L 102.6146 -411.326056 
L 105.28835 -415.602104 
L 107.9621 -419.856971 
L 110.63585 -423.708017 
L 113.3096 -426.641772 
L 115.98335 -428.273154 
L 118.6571 -429.047378 
L 121.33085 -429.680577 
L 124.0046 -430.357228 
L 126.67835 -430.946797 
L 129.3521 -431.30328 
L 132.02585 -431.398863 
L 134.6996 -431.31239 
L 134.6996 -431.31239 
L 137.37335 -431.138001 
L 140.0471 -430.958063 
L 142.72085 -430.874193 
L 145.3946 -430.910123 
L 148.06835 -431.009798 
L 150.7421 -431.104347 
L 153.41585 -431.152678 
L 156.0896 -431.144316 
L 158.76335 -431.094506 
L 161.4371 -431.049856 
L 164.11085 -431.069264 
L 166.7846 -431.171505 
L 169.45835 -431.318257 
L 172.1321 -431.452837 
L 174.80585 -431.536175 
L 177.4796 -431.538204 
L 180.15335 -431.431697 
L 182.8271 -431.242358 
L 185.50085 -431.069527 
L 188.1746 -431.010666 
L 190.84835 -431.094292 
L 193.5221 -431.261224 
L 196.19585 -431.407046 
L 198.8696 -431.482668 
L 198.8696 -431.482668 
L 201.54335 -431.495974 
L 204.2171 -431.440022 
L 206.89085 -431.326246 
L 209.5646 -431.218714 
L 212.23835 -431.138761 
L 214.9121 -431.021078 
L 217.58585 -430.849661 
L 220.2596 -430.65335 
L 222.93335 -430.443174 
L 225.6071 -430.220977 
L 228.28085 -429.999231 
L 230.9546 -429.790586 
L 233.62835 -429.559741 
L 236.3021 -429.173401 
L 238.97585 -428.339892 
L 241.6496 -426.510167 
L 244.32335 -422.802889 
L 246.9971 -416.166441 
L 249.67085 -406.409833 
L 252.3446 -395.883965 
L 255.01835 -389.385004 
L 257.6921 -387.621706 
L 260.36585 -387.302451 
L 263.0396 -387.233179 
L 263.0396 -387.233179 
L 265.71335 -387.194376 
L 268.3871 -387.164179 
L 271.06085 -387.14924 
L 273.7346 -387.168877 
L 276.40835 -387.230467 
L 279.0821 -387.30799 
L 281.75585 -387.36078 
L 284.4296 -387.372961 
L 287.10335 -387.35428 
L 289.7771 -387.318148 
L 292.45085 -387.276567 
L 295.1246 -387.242544 
L 297.79835 -387.229019 
L 300.4721 -387.243172 
L 303.14585 -387.27904 
L 305.8196 -387.318315 
L 308.49335 -387.342484 
L 311.1671 -387.34343 
L 313.84085 -387.321827 
L 316.5146 -387.283329 
L 319.18835 -387.241286 
L 321.8621 -387.21945 
L 324.53585 -387.247967 
L 327.2096 -387.342524 
L 327.2096 -389.018437 
L 327.2096 -389.018437 
L 324.53585 -389.214422 
L 321.8621 -389.255716 
L 319.18835 -389.192749 
L 316.5146 -389.117363 
L 313.84085 -389.090006 
L 311.1671 -389.126096 
L 308.49335 -389.209839 
L 305.8196 -389.311165 
L 303.14585 -389.390956 
L 300.4721 -389.408352 
L 297.79835 -389.346523 
L 295.1246 -389.233606 
L 292.45085 -389.130298 
L 289.7771 -389.096161 
L 287.10335 -389.16214 
L 284.4296 -389.315126 
L 281.75585 -389.496377 
L 279.0821 -389.618576 
L 276.40835 -389.595226 
L 273.7346 -389.393921 
L 271.06085 -389.082768 
L 268.3871 -388.792525 
L 265.71335 -388.637662 
L 263.0396 -388.708975 
L 263.0396 -388.708975 
L 260.36585 -389.166717 
L 257.6921 -390.44194 
L 255.01835 -393.588085 
L 252.3446 -399.783132 
L 249.67085 -409.181652 
L 246.9971 -418.764476 
L 244.32335 -425.398519 
L 241.6496 -429.007651 
L 238.97585 -430.666353 
L 236.3021 -431.311106 
L 233.62835 -431.573767 
L 230.9546 -431.807173 
L 228.28085 -432.097854 
L 225.6071 -432.365958 
L 222.93335 -432.50226 
L 220.2596 -432.451756 
L 217.58585 -432.245207 
L 214.9121 -431.994282 
L 212.23835 -431.842707 
L 209.5646 -431.841904 
L 206.89085 -431.912314 
L 204.2171 -431.994411 
L 201.54335 -432.057146 
L 198.8696 -432.055056 
L 198.8696 -432.055056 
L 196.19585 -431.987853 
L 193.5221 -431.929183 
L 190.84835 -431.927693 
L 188.1746 -431.965801 
L 185.50085 -432.016887 
L 182.8271 -432.068553 
L 180.15335 -432.122921 
L 177.4796 -432.174948 
L 174.80585 -432.181838 
L 172.1321 -432.109298 
L 169.45835 -431.983261 
L 166.7846 -431.862516 
L 164.11085 -431.789651 
L 161.4371 -431.780998 
L 158.76335 -431.837939 
L 156.0896 -431.939195 
L 153.41585 -432.029726 
L 150.7421 -432.052124 
L 148.06835 -431.989293 
L 145.3946 -431.870411 
L 142.72085 -431.752039 
L 140.0471 -431.706447 
L 137.37335 -431.825616 
L 134.6996 -432.178414 
L 134.6996 -432.178414 
L 132.02585 -432.715514 
L 129.3521 -433.340635 
L 126.67835 -433.943918 
L 124.0046 -434.369755 
L 121.33085 -434.426082 
L 118.6571 -433.96364 
L 115.98335 -433.071593 
L 113.3096 -432.235966 
L 110.63585 -431.616274 
L 107.9621 -430.670566 
L 105.28835 -428.944759 
L 102.6146 -426.232288 
L 99.94085 -422.452994 
L 97.2671 -417.679147 
L 94.59335 -412.410871 
L 91.9196 -407.47888 
L 89.24585 -403.33029 
L 86.5721 -400.019154 
L 83.89835 -397.532346 
L 81.2246 -395.703699 
L 78.55085 -393.913752 
L 75.8771 -391.491234 
L 73.20335 -388.953206 
L 70.5296 -387.642165 
z
"/>
    </defs>
    <g clip-path="url(#pb7951b10da)">
     <use xlink:href="#m4207e5279b" x="0" y="444.27" style="fill: #c0392b; fill-opacity: 0.18"/>
    </g>
   </g>
   <g id="matplotlib.axis_1">
    <g id="xtick_1">
     <g id="line2d_5">
      <defs>
       <path id="m1e2fe81ecb" d="M 0 0 
L 0 3.5 
" style="stroke: #000000; stroke-width: 0.8"/>
      </defs>
      <g>
       <use xlink:href="#m1e2fe81ecb" x="102.6146" y="59.198897" style="stroke: #000000; stroke-width: 0.8"/>
      </g>
     </g>
    </g>
    <g id="xtick_2">
     <g id="line2d_6">
      <g>
       <use xlink:href="#m1e2fe81ecb" x="166.7846" y="59.198897" style="stroke: #000000; stroke-width: 0.8"/>
      </g>
     </g>
    </g>
    <g id="xtick_3">
     <g id="line2d_7">
      <g>
       <use xlink:href="#m1e2fe81ecb" x="230.9546" y="59.198897" style="stroke: #000000; stroke-width: 0.8"/>
      </g>
     </g>
    </g>
    <g id="xtick_4">
     <g id="line2d_8">
      <g>
       <use xlink:href="#m1e2fe81ecb" x="295.1246" y="59.198897" style="stroke: #000000; stroke-width: 0.8"/>
      </g>
     </g>
    </g>
   </g>
   <g id="matplotlib.axis_2">
    <g id="ytick_1">
     <g id="line2d_9">
      <defs>
       <path id="m8ae0c4ad13" d="M 0 0 
L -3.5 0 
" style="stroke: #000000; stroke-width: 0.8"/>
      </defs>
      <g>
       <use xlink:href="#m8ae0c4ad13" x="70.5296" y="56.976721" style="stroke: #000000; stroke-width: 0.8"/>
      </g>
     </g>
     <g id="text_1">
      <text style="font-size: 6px; font-family: 'Arial', 'Helvetica', 'DejaVu Sans', sans-serif; text-anchor: end" x="63.5296" y="59.256253" transform="rotate(-0 63.5296 59.256253)">0.0</text>
     </g>
    </g>
    <g id="ytick_2">
     <g id="line2d_10">
      <g>
       <use xlink:href="#m8ae0c4ad13" x="70.5296" y="34.754971" style="stroke: #000000; stroke-width: 0.8"/>
      </g>
     </g>
     <g id="text_2">
      <text style="font-size: 6px; font-family: 'Arial', 'Helvetica', 'DejaVu Sans', sans-serif; text-anchor: end" x="63.5296" y="37.034502" transform="rotate(-0 63.5296 37.034502)">0.5</text>
     </g>
    </g>
    <g id="ytick_3">
     <g id="line2d_11">
      <g>
       <use xlink:href="#m8ae0c4ad13" x="70.5296" y="12.53322" style="stroke: #000000; stroke-width: 0.8"/>
      </g>
     </g>
     <g id="text_3">
      <text style="font-size: 6px; font-family: 'Arial', 'Helvetica', 'DejaVu Sans', sans-serif; text-anchor: end" x="63.5296" y="14.812751" transform="rotate(-0 63.5296 14.812751)">1.0</text>
     </g>
    </g>
    <g id="text_4">
     <!-- d$u$ (x) -->
     <g style="fill: #c0392b" transform="translate(12.604219 43.559448) rotate(-90)">
      <text>
       <tspan x="0" y="-0.6875" style="font-size: 7px; font-family: 'DejaVu Sans'; fill: #c0392b">d</tspan>
       <tspan x="8.879883" y="-0.6875" style="font-size: 7px; font-family: 'DejaVu Sans'; fill: #c0392b"> </tspan>
       <tspan x="11.10498" y="-0.6875" style="font-size: 7px; font-family: 'DejaVu Sans'; fill: #c0392b">(</tspan>
       <tspan x="13.835938" y="-0.6875" style="font-size: 7px; font-family: 'DejaVu Sans'; fill: #c0392b">x</tspan>
       <tspan x="17.978516" y="-0.6875" style="font-size: 7px; font-family: 'DejaVu Sans'; fill: #c0392b">)</tspan>
       <tspan x="4.443359" y="-0.6875" style="font-style: oblique; font-size: 7px; font-family: 'DejaVu Sans'; fill: #c0392b">u</tspan>
      </text>
     </g>
    </g>
   </g>
   <g id="line2d_12">
    <path d="M 70.5296 56.826447 
L 73.20335 56.389328 
L 75.8771 55.475458 
L 78.55085 54.301072 
L 81.2246 52.887107 
L 83.89835 51.036551 
L 86.5721 48.605138 
L 89.24585 45.571603 
L 91.9196 41.982391 
L 94.59335 37.921495 
L 97.2671 33.617982 
L 99.94085 29.400528 
L 102.6146 25.490828 
L 105.28835 21.996569 
L 107.9621 19.006231 
L 110.63585 16.607854 
L 113.3096 14.831131 
L 115.98335 13.597626 
L 118.6571 12.764491 
L 121.33085 12.21667 
L 124.0046 11.906509 
L 126.67835 11.824642 
L 129.3521 11.948042 
L 132.02585 12.212812 
L 134.6996 12.524598 
L 134.6996 12.524598 
L 137.37335 12.788192 
L 140.0471 12.937745 
L 142.72085 12.956884 
L 145.3946 12.879733 
L 148.06835 12.770454 
L 150.7421 12.691765 
L 153.41585 12.678798 
L 156.0896 12.728245 
L 158.76335 12.803777 
L 161.4371 12.854573 
L 164.11085 12.840543 
L 166.7846 12.75299 
L 169.45835 12.619241 
L 172.1321 12.488933 
L 174.80585 12.410994 
L 177.4796 12.413424 
L 180.15335 12.492691 
L 182.8271 12.614545 
L 185.50085 12.726793 
L 188.1746 12.781767 
L 190.84835 12.759007 
L 193.5221 12.674796 
L 196.19585 12.57255 
L 198.8696 12.501138 
L 198.8696 12.501138 
L 201.54335 12.49344 
L 204.2171 12.552784 
L 206.89085 12.65072 
L 209.5646 12.739691 
L 212.23835 12.779266 
L 214.9121 12.76232 
L 217.58585 12.722566 
L 220.2596 12.717447 
L 222.93335 12.797283 
L 225.6071 12.976532 
L 228.28085 13.221457 
L 230.9546 13.471121 
L 233.62835 13.703246 
L 236.3021 14.027746 
L 238.97585 14.766878 
L 241.6496 16.511091 
L 244.32335 20.169296 
L 246.9971 26.804541 
L 249.67085 36.474257 
L 252.3446 46.436451 
L 255.01835 52.783455 
L 257.6921 55.238177 
L 260.36585 56.035416 
L 263.0396 56.298923 
L 263.0396 56.298923 
L 265.71335 56.353981 
L 268.3871 56.291648 
L 271.06085 56.153996 
L 273.7346 55.988601 
L 276.40835 55.857153 
L 279.0821 55.806717 
L 281.75585 55.841422 
L 284.4296 55.925956 
L 287.10335 56.01179 
L 289.7771 56.062846 
L 292.45085 56.066568 
L 295.1246 56.031925 
L 297.79835 55.982229 
L 300.4721 55.944238 
L 303.14585 55.935002 
L 305.8196 55.95526 
L 308.49335 55.993839 
L 311.1671 56.035237 
L 313.84085 56.064083 
L 316.5146 56.069654 
L 319.18835 56.052983 
L 321.8621 56.032417 
L 324.53585 56.038805 
L 327.2096 56.089519 
" clip-path="url(#pb7951b10da)" style="fill: none; stroke: #c0392b; stroke-width: 1.4; stroke-linecap: square"/>
   </g>
   <g id="line2d_13">
    <path d="M 70.5296 12.53322 
L 73.20335 12.53322 
L 75.8771 12.53322 
L 78.55085 12.53322 
L 81.2246 12.53322 
L 83.89835 12.53322 
L 86.5721 12.53322 
L 89.24585 12.53322 
L 91.9196 12.53322 
L 94.59335 12.53322 
L 97.2671 12.53322 
L 99.94085 12.53322 
L 102.6146 12.53322 
L 105.28835 12.53322 
L 107.9621 12.53322 
L 110.63585 12.53322 
L 113.3096 12.53322 
L 115.98335 12.53322 
L 118.6571 12.53322 
L 121.33085 12.53322 
L 124.0046 12.53322 
L 126.67835 12.53322 
L 129.3521 12.53322 
L 132.02585 12.53322 
L 134.6996 12.53322 
L 134.6996 12.53322 
L 137.37335 12.53322 
L 140.0471 12.53322 
L 142.72085 12.53322 
L 145.3946 12.53322 
L 148.06835 12.53322 
L 150.7421 12.53322 
L 153.41585 12.53322 
L 156.0896 12.53322 
L 158.76335 12.53322 
L 161.4371 12.53322 
L 164.11085 12.53322 
L 166.7846 12.53322 
L 169.45835 12.53322 
L 172.1321 12.53322 
L 174.80585 12.53322 
L 177.4796 12.53322 
L 180.15335 12.53322 
L 182.8271 12.53322 
L 185.50085 12.53322 
L 188.1746 12.53322 
L 190.84835 12.53322 
L 193.5221 12.53322 
L 196.19585 12.53322 
L 198.8696 56.976721 
L 198.8696 56.976721 
L 201.54335 56.976721 
L 204.2171 56.976721 
L 206.89085 56.976721 
L 209.5646 56.976721 
L 212.23835 56.976721 
L 214.9121 56.976721 
L 217.58585 56.976721 
L 220.2596 56.976721 
L 222.93335 56.976721 
L 225.6071 56.976721 
L 228.28085 56.976721 
L 230.9546 56.976721 
L 233.62835 56.976721 
L 236.3021 56.976721 
L 238.97585 56.976721 
L 241.6496 56.976721 
L 244.32335 56.976721 
L 246.9971 56.976721 
L 249.67085 56.976721 
L 252.3446 56.976721 
L 255.01835 56.976721 
L 257.6921 56.976721 
L 260.36585 56.976721 
L 263.0396 56.976721 
L 263.0396 56.976721 
L 265.71335 56.976721 
L 268.3871 56.976721 
L 271.06085 56.976721 
L 273.7346 56.976721 
L 276.40835 56.976721 
L 279.0821 56.976721 
L 281.75585 56.976721 
L 284.4296 56.976721 
L 287.10335 56.976721 
L 289.7771 56.976721 
L 292.45085 56.976721 
L 295.1246 56.976721 
L 297.79835 56.976721 
L 300.4721 56.976721 
L 303.14585 56.976721 
L 305.8196 56.976721 
L 308.49335 56.976721 
L 311.1671 56.976721 
L 313.84085 56.976721 
L 316.5146 56.976721 
L 319.18835 56.976721 
L 321.8621 56.976721 
L 324.53585 56.976721 
L 327.2096 56.976721 
" clip-path="url(#pb7951b10da)" style="fill: none; stroke-dasharray: 3.33,1.44; stroke-dashoffset: 0; stroke: #7f7f7f; stroke-width: 0.9"/>
   </g>
   <g id="patch_4">
    <path d="M 70.5296 59.198897 
L 70.5296 7.2 
" style="fill: none; stroke: #000000; stroke-width: 0.8; stroke-linejoin: miter; stroke-linecap: square"/>
   </g>
   <g id="patch_5">
    <path d="M 70.5296 59.198897 
L 327.2096 59.198897 
" style="fill: none; stroke: #000000; stroke-width: 0.8; stroke-linejoin: miter; stroke-linecap: square"/>
   </g>
   <g id="legend_1">
    <g id="line2d_14">
     <path d="M 74.1296 13.26 
L 80.7296 13.26 
L 87.3296 13.26 
" style="fill: none; stroke: #c0392b; stroke-width: 1.4; stroke-linecap: square"/>
    </g>
    <g id="text_5">
     <!-- fitted $\alpha_j(s)$ -->
     <g transform="translate(92.1296 15.36)">
      <text>
       <tspan x="0" y="-0.4375" style="font-size: 6px; font-family: 'DejaVu Sans'">f</tspan>
       <tspan x="2.112305" y="-0.4375" style="font-size: 6px; font-family: 'DejaVu Sans'">i</tspan>
       <tspan x="3.779297" y="-0.4375" style="font-size: 6px; font-family: 'DejaVu Sans'">t</tspan>
       <tspan x="6.131836" y="-0.4375" style="font-size: 6px; font-family: 'DejaVu Sans'">t</tspan>
       <tspan x="8.484375" y="-0.4375" style="font-size: 6px; font-family: 'DejaVu Sans'">e</tspan>
       <tspan x="12.175781" y="-0.4375" style="font-size: 6px; font-family: 'DejaVu Sans'">d</tspan>
       <tspan x="15.984375" y="-0.4375" style="font-size: 6px; font-family: 'DejaVu Sans'"> </tspan>
       <tspan x="23.177637" y="-0.4375" style="font-size: 6px; font-family: 'DejaVu Sans'">(</tspan>
       <tspan x="28.644434" y="-0.4375" style="font-size: 6px; font-family: 'DejaVu Sans'">)</tspan>
       <tspan x="17.891602" y="-0.4375" style="font-style: oblique; font-size: 6px; font-family: 'DejaVu Sans'">α</tspan>
       <tspan x="25.518457" y="-0.4375" style="font-style: oblique; font-size: 6px; font-family: 'DejaVu Sans'">s</tspan>
       <tspan x="21.84668" y="0.546875" style="font-style: oblique; font-size: 4.2px; font-family: 'DejaVu Sans'">j</tspan>
      </text>
     </g>
    </g>
    <g id="line2d_15">
     <path d="M 74.1296 22.679063 
L 80.7296 22.679063 
L 87.3296 22.679063 
" style="fill: none; stroke-dasharray: 3.33,1.44; stroke-dashoffset: 0; stroke: #7f7f7f; stroke-width: 0.9"/>
    </g>
    <g id="text_6">
     <text style="font-size: 6px; font-family: 'Arial', 'Helvetica', 'DejaVu Sans', sans-serif; text-anchor: start" x="92.1296" y="24.779063" transform="rotate(-0 92.1296 24.779063)">oracle</text>
    </g>
   </g>
  </g>
  <g id="axes_2">
   <g id="patch_6">
    <path d="M 70.5296 124.197517 
L 327.2096 124.197517 
L 327.2096 72.198621 
L 70.5296 72.198621 
z
" style="fill: #ffffff"/>
   </g>
   <g id="line2d_16">
    <path d="M 70.5296 121.975342 
L 327.2096 121.975342 
" clip-path="url(#p6a6a864cb7)" style="fill: none; stroke: #cccccc; stroke-width: 0.6; stroke-linecap: square"/>
   </g>
   <g id="line2d_17">
    <path d="M 134.6996 124.197517 
L 134.6996 72.198621 
" clip-path="url(#p6a6a864cb7)" style="fill: none; stroke-dasharray: 0.6,0.99; stroke-dashoffset: 0; stroke: #cccccc; stroke-width: 0.6"/>
   </g>
   <g id="line2d_18">
    <path d="M 198.8696 124.197517 
L 198.8696 72.198621 
" clip-path="url(#p6a6a864cb7)" style="fill: none; stroke-dasharray: 0.6,0.99; stroke-dashoffset: 0; stroke: #cccccc; stroke-width: 0.6"/>
   </g>
   <g id="line2d_19">
    <path d="M 263.0396 124.197517 
L 263.0396 72.198621 
" clip-path="url(#p6a6a864cb7)" style="fill: none; stroke-dasharray: 0.6,0.99; stroke-dashoffset: 0; stroke: #cccccc; stroke-width: 0.6"/>
   </g>
   <g id="FillBetweenPolyCollection_2">
    <defs>
     <path id="m9fa2ac5fb8" d="M 70.5296 -323.430909 
L 70.5296 -322.020074 
L 73.20335 -321.871898 
L 75.8771 -321.774987 
L 78.55085 -322.029784 
L 81.2246 -323.593004 
L 83.89835 -326.576161 
L 86.5721 -329.947976 
L 89.24585 -333.262993 
L 91.9196 -336.563898 
L 94.59335 -339.829479 
L 97.2671 -342.945134 
L 99.94085 -345.919195 
L 102.6146 -348.807762 
L 105.28835 -351.573284 
L 107.9621 -354.079542 
L 110.63585 -356.137062 
L 113.3096 -357.554196 
L 115.98335 -358.397156 
L 118.6571 -359.122504 
L 121.33085 -360.093364 
L 124.0046 -361.356288 
L 126.67835 -362.805356 
L 129.3521 -364.252516 
L 132.02585 -365.385464 
L 134.6996 -365.974562 
L 134.6996 -365.974562 
L 137.37335 -366.218896 
L 140.0471 -366.338707 
L 142.72085 -366.393587 
L 145.3946 -366.335316 
L 148.06835 -366.178556 
L 150.7421 -366.121054 
L 153.41585 -366.24202 
L 156.0896 -366.379083 
L 158.76335 -366.355224 
L 161.4371 -366.331865 
L 164.11085 -366.401623 
L 166.7846 -366.51724 
L 169.45835 -366.53333 
L 172.1321 -366.465918 
L 174.80585 -366.464682 
L 177.4796 -366.543088 
L 180.15335 -366.592614 
L 182.8271 -366.514972 
L 185.50085 -366.409882 
L 188.1746 -366.353562 
L 190.84835 -366.302249 
L 193.5221 -366.214898 
L 196.19585 -366.175951 
L 198.8696 -366.230636 
L 198.8696 -366.230636 
L 201.54335 -366.3375 
L 204.2171 -366.42323 
L 206.89085 -366.451182 
L 209.5646 -366.420073 
L 212.23835 -366.30493 
L 214.9121 -366.08897 
L 217.58585 -365.8187 
L 220.2596 -365.539994 
L 222.93335 -365.272551 
L 225.6071 -365.029769 
L 228.28085 -364.828959 
L 230.9546 -364.68277 
L 233.62835 -364.588828 
L 236.3021 -364.531772 
L 238.97585 -364.495909 
L 241.6496 -364.472486 
L 244.32335 -364.452496 
L 246.9971 -364.420677 
L 249.67085 -364.366358 
L 252.3446 -364.296907 
L 255.01835 -364.233038 
L 257.6921 -364.192625 
L 260.36585 -364.181033 
L 263.0396 -364.192402 
L 263.0396 -364.192402 
L 265.71335 -364.21529 
L 268.3871 -364.237315 
L 271.06085 -364.249189 
L 273.7346 -364.248367 
L 276.40835 -364.239164 
L 279.0821 -364.228641 
L 281.75585 -364.222205 
L 284.4296 -364.222223 
L 287.10335 -364.228827 
L 289.7771 -364.24041 
L 292.45085 -364.25378 
L 295.1246 -364.265675 
L 297.79835 -364.27498 
L 300.4721 -364.283098 
L 303.14585 -364.292183 
L 305.8196 -364.303558 
L 308.49335 -364.317823 
L 311.1671 -364.335631 
L 313.84085 -364.357306 
L 316.5146 -364.381625 
L 319.18835 -364.405998 
L 321.8621 -364.428438 
L 324.53585 -364.448136 
L 327.2096 -364.460525 
L 327.2096 -367.379649 
L 327.2096 -367.379649 
L 324.53585 -367.455327 
L 321.8621 -367.462075 
L 319.18835 -367.428311 
L 316.5146 -367.383387 
L 313.84085 -367.349443 
L 311.1671 -367.337971 
L 308.49335 -367.349531 
L 305.8196 -367.375283 
L 303.14585 -367.400639 
L 300.4721 -367.411442 
L 297.79835 -367.40065 
L 295.1246 -367.371919 
L 292.45085 -367.33782 
L 289.7771 -367.313752 
L 287.10335 -367.310961 
L 284.4296 -367.331628 
L 281.75585 -367.367284 
L 279.0821 -367.401608 
L 276.40835 -367.417807 
L 273.7346 -367.407375 
L 271.06085 -367.374745 
L 268.3871 -367.334669 
L 265.71335 -367.304243 
L 263.0396 -367.294617 
L 263.0396 -367.294617 
L 260.36585 -367.305899 
L 257.6921 -367.326786 
L 255.01835 -367.340704 
L 252.3446 -367.337147 
L 249.67085 -367.320426 
L 246.9971 -367.306754 
L 244.32335 -367.310421 
L 241.6496 -367.334085 
L 238.97585 -367.372373 
L 236.3021 -367.416051 
L 233.62835 -367.447976 
L 230.9546 -367.443529 
L 228.28085 -367.384426 
L 225.6071 -367.27413 
L 222.93335 -367.13953 
L 220.2596 -367.01562 
L 217.58585 -366.925593 
L 214.9121 -366.878494 
L 212.23835 -366.88614 
L 209.5646 -366.948786 
L 206.89085 -367.009663 
L 204.2171 -367.026289 
L 201.54335 -367.011897 
L 198.8696 -366.976036 
L 198.8696 -366.976036 
L 196.19585 -366.908381 
L 193.5221 -366.820799 
L 190.84835 -366.779555 
L 188.1746 -366.853357 
L 185.50085 -366.960538 
L 182.8271 -367.008886 
L 180.15335 -367.035767 
L 177.4796 -367.128013 
L 174.80585 -367.205523 
L 172.1321 -367.192352 
L 169.45835 -367.121137 
L 166.7846 -367.134334 
L 164.11085 -367.225165 
L 161.4371 -367.227392 
L 158.76335 -367.085737 
L 156.0896 -366.909107 
L 153.41585 -366.91268 
L 150.7421 -367.001047 
L 148.06835 -367.072442 
L 145.3946 -367.188631 
L 142.72085 -367.437193 
L 140.0471 -367.664391 
L 137.37335 -367.640608 
L 134.6996 -367.26603 
L 134.6996 -367.26603 
L 132.02585 -366.669364 
L 129.3521 -366.096701 
L 126.67835 -365.557223 
L 124.0046 -365.135272 
L 121.33085 -365.059426 
L 118.6571 -365.469885 
L 115.98335 -366.336417 
L 113.3096 -367.598773 
L 110.63585 -369.052317 
L 107.9621 -370.153477 
L 105.28835 -370.501341 
L 102.6146 -370.02463 
L 99.94085 -368.764208 
L 97.2671 -366.860599 
L 94.59335 -364.64043 
L 91.9196 -362.453421 
L 89.24585 -360.243386 
L 86.5721 -357.457754 
L 83.89835 -353.197198 
L 81.2246 -346.416739 
L 78.55085 -337.275036 
L 75.8771 -329.268564 
L 73.20335 -325.045768 
L 70.5296 -323.430909 
z
"/>
    </defs>
    <g clip-path="url(#p6a6a864cb7)">
     <use xlink:href="#m9fa2ac5fb8" x="0" y="444.27" style="fill: #4a6fa5; fill-opacity: 0.18"/>
    </g>
   </g>
   <g id="matplotlib.axis_3">
    <g id="xtick_5">
     <g id="line2d_20">
      <g>
       <use xlink:href="#m1e2fe81ecb" x="102.6146" y="124.197517" style="stroke: #000000; stroke-width: 0.8"/>
      </g>
     </g>
    </g>
    <g id="xtick_6">
     <g id="line2d_21">
      <g>
       <use xlink:href="#m1e2fe81ecb" x="166.7846" y="124.197517" style="stroke: #000000; stroke-width: 0.8"/>
      </g>
     </g>
    </g>
    <g id="xtick_7">
     <g id="line2d_22">
      <g>
       <use xlink:href="#m1e2fe81ecb" x="230.9546" y="124.197517" style="stroke: #000000; stroke-width: 0.8"/>
      </g>
     </g>
    </g>
    <g id="xtick_8">
     <g id="line2d_23">
      <g>
       <use xlink:href="#m1e2fe81ecb" x="295.1246" y="124.197517" style="stroke: #000000; stroke-width: 0.8"/>
      </g>
     </g>
    </g>
   </g>
   <g id="matplotlib.axis_4">
    <g id="ytick_4">
     <g id="line2d_24">
      <g>
       <use xlink:href="#m8ae0c4ad13" x="70.5296" y="121.975342" style="stroke: #000000; stroke-width: 0.8"/>
      </g>
     </g>
     <g id="text_7">
      <text style="font-size: 6px; font-family: 'Arial', 'Helvetica', 'DejaVu Sans', sans-serif; text-anchor: end" x="63.5296" y="124.254873" transform="rotate(-0 63.5296 124.254873)">0.0</text>
     </g>
    </g>
    <g id="ytick_5">
     <g id="line2d_25">
      <g>
       <use xlink:href="#m8ae0c4ad13" x="70.5296" y="99.753592" style="stroke: #000000; stroke-width: 0.8"/>
      </g>
     </g>
     <g id="text_8">
      <text style="font-size: 6px; font-family: 'Arial', 'Helvetica', 'DejaVu Sans', sans-serif; text-anchor: end" x="63.5296" y="102.033123" transform="rotate(-0 63.5296 102.033123)">0.5</text>
     </g>
    </g>
    <g id="ytick_6">
     <g id="line2d_26">
      <g>
       <use xlink:href="#m8ae0c4ad13" x="70.5296" y="77.531841" style="stroke: #000000; stroke-width: 0.8"/>
      </g>
     </g>
     <g id="text_9">
      <text style="font-size: 6px; font-family: 'Arial', 'Helvetica', 'DejaVu Sans', sans-serif; text-anchor: end" x="63.5296" y="79.811372" transform="rotate(-0 63.5296 79.811372)">1.0</text>
     </g>
    </g>
    <g id="text_10">
     <!-- d$v$ (y) -->
     <g transform="translate(12.59 108.418069) rotate(-90)">
      <text>
       <tspan x="0" y="-0.6875" style="font-size: 7px; font-family: 'DejaVu Sans'">d</tspan>
       <tspan x="8.585938" y="-0.6875" style="font-size: 7px; font-family: 'DejaVu Sans'"> </tspan>
       <tspan x="10.811035" y="-0.6875" style="font-size: 7px; font-family: 'DejaVu Sans'">(</tspan>
       <tspan x="13.541992" y="-0.6875" style="font-size: 7px; font-family: 'DejaVu Sans'">y</tspan>
       <tspan x="17.68457" y="-0.6875" style="font-size: 7px; font-family: 'DejaVu Sans'">)</tspan>
       <tspan x="4.443359" y="-0.6875" style="font-style: oblique; font-size: 7px; font-family: 'DejaVu Sans'">v</tspan>
      </text>
     </g>
    </g>
   </g>
   <g id="line2d_27">
    <path d="M 70.5296 121.544508 
L 73.20335 120.811167 
L 75.8771 118.748224 
L 78.55085 114.61759 
L 81.2246 109.265128 
L 83.89835 104.383321 
L 86.5721 100.567135 
L 89.24585 97.516811 
L 91.9196 94.76134 
L 94.59335 92.035045 
L 97.2671 89.367133 
L 99.94085 86.928298 
L 102.6146 84.853804 
L 105.28835 83.232688 
L 107.9621 82.15349 
L 110.63585 81.675311 
L 113.3096 81.693516 
L 115.98335 81.903214 
L 118.6571 81.973806 
L 121.33085 81.693605 
L 124.0046 81.02422 
L 126.67835 80.08871 
L 129.3521 79.095391 
L 132.02585 78.242586 
L 134.6996 77.649704 
L 134.6996 77.649704 
L 137.37335 77.340248 
L 140.0471 77.268451 
L 142.72085 77.35461 
L 145.3946 77.508026 
L 148.06835 77.644501 
L 150.7421 77.70895 
L 153.41585 77.69265 
L 156.0896 77.625905 
L 158.76335 77.549519 
L 161.4371 77.490372 
L 164.11085 77.456606 
L 166.7846 77.444213 
L 169.45835 77.442766 
L 172.1321 77.440865 
L 174.80585 77.434898 
L 177.4796 77.434449 
L 180.15335 77.45581 
L 182.8271 77.508071 
L 185.50085 77.58479 
L 188.1746 77.66654 
L 190.84835 77.729098 
L 193.5221 77.752151 
L 196.19585 77.727834 
L 198.8696 77.666664 
L 198.8696 77.666664 
L 201.54335 77.595301 
L 204.2171 77.545241 
L 206.89085 77.539578 
L 209.5646 77.585571 
L 212.23835 77.674465 
L 214.9121 77.786268 
L 217.58585 77.897854 
L 220.2596 77.992193 
L 222.93335 78.06396 
L 225.6071 78.11805 
L 228.28085 78.163308 
L 230.9546 78.20685 
L 233.62835 78.251598 
L 236.3021 78.296089 
L 238.97585 78.335859 
L 241.6496 78.366714 
L 244.32335 78.388541 
L 246.9971 78.406285 
L 249.67085 78.426608 
L 252.3446 78.452973 
L 255.01835 78.483129 
L 257.6921 78.510294 
L 260.36585 78.526534 
L 263.0396 78.52649 
L 263.0396 78.52649 
L 265.71335 78.510234 
L 268.3871 78.484008 
L 271.06085 78.458033 
L 273.7346 78.442129 
L 276.40835 78.441514 
L 279.0821 78.454876 
L 281.75585 78.475255 
L 284.4296 78.493074 
L 287.10335 78.500106 
L 289.7771 78.492919 
L 292.45085 78.4742 
L 295.1246 78.451203 
L 297.79835 78.432185 
L 300.4721 78.42273 
L 303.14585 78.423589 
L 305.8196 78.430579 
L 308.49335 78.436323 
L 311.1671 78.433199 
L 313.84085 78.416626 
L 316.5146 78.387494 
L 319.18835 78.352845 
L 321.8621 78.324743 
L 324.53585 78.318268 
L 327.2096 78.349913 
" clip-path="url(#p6a6a864cb7)" style="fill: none; stroke: #4a6fa5; stroke-width: 1.4; stroke-linecap: square"/>
   </g>
   <g id="line2d_28">
    <path d="M 70.5296 77.531841 
L 73.20335 77.531841 
L 75.8771 77.531841 
L 78.55085 77.531841 
L 81.2246 77.531841 
L 83.89835 77.531841 
L 86.5721 77.531841 
L 89.24585 77.531841 
L 91.9196 77.531841 
L 94.59335 77.531841 
L 97.2671 77.531841 
L 99.94085 77.531841 
L 102.6146 77.531841 
L 105.28835 77.531841 
L 107.9621 77.531841 
L 110.63585 77.531841 
L 113.3096 77.531841 
L 115.98335 77.531841 
L 118.6571 77.531841 
L 121.33085 77.531841 
L 124.0046 77.531841 
L 126.67835 77.531841 
L 129.3521 77.531841 
L 132.02585 77.531841 
L 134.6996 77.531841 
L 134.6996 77.531841 
L 137.37335 77.531841 
L 140.0471 77.531841 
L 142.72085 77.531841 
L 145.3946 77.531841 
L 148.06835 77.531841 
L 150.7421 77.531841 
L 153.41585 77.531841 
L 156.0896 77.531841 
L 158.76335 77.531841 
L 161.4371 77.531841 
L 164.11085 77.531841 
L 166.7846 77.531841 
L 169.45835 77.531841 
L 172.1321 77.531841 
L 174.80585 77.531841 
L 177.4796 77.531841 
L 180.15335 77.531841 
L 182.8271 77.531841 
L 185.50085 77.531841 
L 188.1746 77.531841 
L 190.84835 77.531841 
L 193.5221 77.531841 
L 196.19585 77.531841 
L 198.8696 77.531841 
L 198.8696 77.531841 
L 201.54335 77.531841 
L 204.2171 77.531841 
L 206.89085 77.531841 
L 209.5646 77.531841 
L 212.23835 77.531841 
L 214.9121 77.531841 
L 217.58585 77.531841 
L 220.2596 77.531841 
L 222.93335 77.531841 
L 225.6071 77.531841 
L 228.28085 77.531841 
L 230.9546 77.531841 
L 233.62835 77.531841 
L 236.3021 77.531841 
L 238.97585 77.531841 
L 241.6496 77.531841 
L 244.32335 77.531841 
L 246.9971 77.531841 
L 249.67085 77.531841 
L 252.3446 77.531841 
L 255.01835 77.531841 
L 257.6921 77.531841 
L 260.36585 77.531841 
L 263.0396 77.531841 
L 263.0396 77.531841 
L 265.71335 77.531841 
L 268.3871 77.531841 
L 271.06085 77.531841 
L 273.7346 77.531841 
L 276.40835 77.531841 
L 279.0821 77.531841 
L 281.75585 77.531841 
L 284.4296 77.531841 
L 287.10335 77.531841 
L 289.7771 77.531841 
L 292.45085 77.531841 
L 295.1246 77.531841 
L 297.79835 77.531841 
L 300.4721 77.531841 
L 303.14585 77.531841 
L 305.8196 77.531841 
L 308.49335 77.531841 
L 311.1671 77.531841 
L 313.84085 77.531841 
L 316.5146 77.531841 
L 319.18835 77.531841 
L 321.8621 77.531841 
L 324.53585 77.531841 
L 327.2096 77.531841 
" clip-path="url(#p6a6a864cb7)" style="fill: none; stroke-dasharray: 3.33,1.44; stroke-dashoffset: 0; stroke: #7f7f7f; stroke-width: 0.9"/>
   </g>
   <g id="patch_7">
    <path d="M 70.5296 124.197517 
L 70.5296 72.198621 
" style="fill: none; stroke: #000000; stroke-width: 0.8; stroke-linejoin: miter; stroke-linecap: square"/>
   </g>
   <g id="patch_8">
    <path d="M 70.5296 124.197517 
L 327.2096 124.197517 
" style="fill: none; stroke: #000000; stroke-width: 0.8; stroke-linejoin: miter; stroke-linecap: square"/>
   </g>
  </g>
  <g id="axes_3">
   <g id="patch_9">
    <path d="M 70.5296 189.196138 
L 327.2096 189.196138 
L 327.2096 137.197241 
L 70.5296 137.197241 
z
" style="fill: #ffffff"/>
   </g>
   <g id="line2d_29">
    <path d="M 70.5296 186.973963 
L 327.2096 186.973963 
" clip-path="url(#p93059d1f5e)" style="fill: none; stroke: #cccccc; stroke-width: 0.6; stroke-linecap: square"/>
   </g>
   <g id="line2d_30">
    <path d="M 134.6996 189.196138 
L 134.6996 137.197241 
" clip-path="url(#p93059d1f5e)" style="fill: none; stroke-dasharray: 0.6,0.99; stroke-dashoffset: 0; stroke: #cccccc; stroke-width: 0.6"/>
   </g>
   <g id="line2d_31">
    <path d="M 198.8696 189.196138 
L 198.8696 137.197241 
" clip-path="url(#p93059d1f5e)" style="fill: none; stroke-dasharray: 0.6,0.99; stroke-dashoffset: 0; stroke: #cccccc; stroke-width: 0.6"/>
   </g>
   <g id="line2d_32">
    <path d="M 263.0396 189.196138 
L 263.0396 137.197241 
" clip-path="url(#p93059d1f5e)" style="fill: none; stroke-dasharray: 0.6,0.99; stroke-dashoffset: 0; stroke: #cccccc; stroke-width: 0.6"/>
   </g>
   <g id="FillBetweenPolyCollection_3">
    <defs>
     <path id="m30dd94a4a8" d="M 70.5296 -257.560972 
L 70.5296 -257.159842 
L 73.20335 -257.053373 
L 75.8771 -257.037162 
L 78.55085 -257.008861 
L 81.2246 -256.945975 
L 83.89835 -256.719091 
L 86.5721 -256.414576 
L 89.24585 -258.468726 
L 91.9196 -265.637433 
L 94.59335 -275.603091 
L 97.2671 -285.373259 
L 99.94085 -293.304899 
L 102.6146 -298.642259 
L 105.28835 -301.421826 
L 107.9621 -302.697573 
L 110.63585 -302.949943 
L 113.3096 -302.347479 
L 115.98335 -301.073524 
L 118.6571 -299.580229 
L 121.33085 -298.56301 
L 124.0046 -298.436093 
L 126.67835 -299.156611 
L 129.3521 -300.502539 
L 132.02585 -301.655945 
L 134.6996 -301.148444 
L 134.6996 -301.148444 
L 137.37335 -300.907066 
L 140.0471 -301.077989 
L 142.72085 -301.072525 
L 145.3946 -301.05362 
L 148.06835 -301.107898 
L 150.7421 -301.053821 
L 153.41585 -300.925251 
L 156.0896 -300.888895 
L 158.76335 -300.932371 
L 161.4371 -300.898294 
L 164.11085 -300.708188 
L 166.7846 -300.467784 
L 169.45835 -300.294041 
L 172.1321 -300.229051 
L 174.80585 -300.287443 
L 177.4796 -300.461701 
L 180.15335 -300.700466 
L 182.8271 -300.945217 
L 185.50085 -301.170765 
L 188.1746 -301.362164 
L 190.84835 -301.481105 
L 193.5221 -301.468314 
L 196.19585 -301.320701 
L 198.8696 -301.142798 
L 198.8696 -301.142798 
L 201.54335 -301.016969 
L 204.2171 -300.977478 
L 206.89085 -301.054156 
L 209.5646 -301.245363 
L 212.23835 -301.481654 
L 214.9121 -301.645447 
L 217.58585 -301.678124 
L 220.2596 -301.657044 
L 222.93335 -301.65387 
L 225.6071 -301.631867 
L 228.28085 -301.545245 
L 230.9546 -301.545582 
L 233.62835 -301.639812 
L 236.3021 -301.725765 
L 238.97585 -301.711956 
L 241.6496 -301.60777 
L 244.32335 -301.435439 
L 246.9971 -301.188838 
L 249.67085 -300.853679 
L 252.3446 -300.488726 
L 255.01835 -300.196484 
L 257.6921 -300.020925 
L 260.36585 -299.942029 
L 263.0396 -299.92481 
L 263.0396 -299.92481 
L 265.71335 -299.947364 
L 268.3871 -299.983368 
L 271.06085 -300.000094 
L 273.7346 -299.987138 
L 276.40835 -299.96609 
L 279.0821 -299.960138 
L 281.75585 -299.968818 
L 284.4296 -299.976302 
L 287.10335 -299.977741 
L 289.7771 -299.981533 
L 292.45085 -299.989258 
L 295.1246 -299.992597 
L 297.79835 -299.988089 
L 300.4721 -299.98152 
L 303.14585 -299.972692 
L 305.8196 -299.949043 
L 308.49335 -299.906405 
L 311.1671 -299.861901 
L 313.84085 -299.835424 
L 316.5146 -299.830926 
L 319.18835 -299.834543 
L 321.8621 -299.826039 
L 324.53585 -299.785627 
L 327.2096 -299.671316 
L 327.2096 -301.074123 
L 327.2096 -301.074123 
L 324.53585 -300.917872 
L 321.8621 -300.858138 
L 319.18835 -300.843123 
L 316.5146 -300.843413 
L 313.84085 -300.833512 
L 311.1671 -300.799092 
L 308.49335 -300.746966 
L 305.8196 -300.701379 
L 303.14585 -300.683313 
L 300.4721 -300.689613 
L 297.79835 -300.704114 
L 295.1246 -300.719118 
L 292.45085 -300.732829 
L 289.7771 -300.738843 
L 287.10335 -300.732841 
L 284.4296 -300.72573 
L 281.75585 -300.7359 
L 279.0821 -300.763216 
L 276.40835 -300.786156 
L 273.7346 -300.787234 
L 271.06085 -300.767979 
L 268.3871 -300.737371 
L 265.71335 -300.695556 
L 263.0396 -300.649803 
L 263.0396 -300.649803 
L 260.36585 -300.636996 
L 257.6921 -300.702963 
L 255.01835 -300.85783 
L 252.3446 -301.078045 
L 249.67085 -301.345075 
L 246.9971 -301.655402 
L 244.32335 -301.953711 
L 241.6496 -302.140434 
L 238.97585 -302.176434 
L 236.3021 -302.110786 
L 233.62835 -302.032129 
L 230.9546 -301.954995 
L 228.28085 -301.868652 
L 225.6071 -301.818391 
L 222.93335 -301.928543 
L 220.2596 -302.07912 
L 217.58585 -302.14739 
L 214.9121 -302.142654 
L 212.23835 -302.130789 
L 209.5646 -302.10278 
L 206.89085 -302.034797 
L 204.2171 -301.954863 
L 201.54335 -301.92049 
L 198.8696 -301.960176 
L 198.8696 -301.960176 
L 196.19585 -302.048862 
L 193.5221 -302.173227 
L 190.84835 -302.34011 
L 188.1746 -302.481623 
L 185.50085 -302.524757 
L 182.8271 -302.465132 
L 180.15335 -302.356984 
L 177.4796 -302.266778 
L 174.80585 -302.229884 
L 172.1321 -302.261048 
L 169.45835 -302.368466 
L 166.7846 -302.529328 
L 164.11085 -302.704252 
L 161.4371 -302.903326 
L 158.76335 -303.1403 
L 156.0896 -303.305802 
L 153.41585 -303.275467 
L 150.7421 -303.089079 
L 148.06835 -302.956797 
L 145.3946 -302.958989 
L 142.72085 -302.946395 
L 140.0471 -302.981294 
L 137.37335 -303.232122 
L 134.6996 -303.342899 
L 134.6996 -303.342899 
L 132.02585 -303.768337 
L 129.3521 -306.067556 
L 126.67835 -307.86574 
L 124.0046 -308.74209 
L 121.33085 -309.69861 
L 118.6571 -310.95324 
L 115.98335 -312.180968 
L 113.3096 -313.152712 
L 110.63585 -313.822597 
L 107.9621 -314.255668 
L 105.28835 -314.455513 
L 102.6146 -314.072656 
L 99.94085 -312.918363 
L 97.2671 -310.963066 
L 94.59335 -308.424874 
L 91.9196 -304.286379 
L 89.24585 -297.747056 
L 86.5721 -288.919204 
L 83.89835 -279.342299 
L 81.2246 -271.30932 
L 78.55085 -264.735742 
L 75.8771 -260.11362 
L 73.20335 -258.135438 
L 70.5296 -257.560972 
z
"/>
    </defs>
    <g clip-path="url(#p93059d1f5e)">
     <use xlink:href="#m30dd94a4a8" x="0" y="444.27" style="fill: #4a6fa5; fill-opacity: 0.18"/>
    </g>
   </g>
   <g id="matplotlib.axis_5">
    <g id="xtick_9">
     <g id="line2d_33">
      <g>
       <use xlink:href="#m1e2fe81ecb" x="102.6146" y="189.196138" style="stroke: #000000; stroke-width: 0.8"/>
      </g>
     </g>
    </g>
    <g id="xtick_10">
     <g id="line2d_34">
      <g>
       <use xlink:href="#m1e2fe81ecb" x="166.7846" y="189.196138" style="stroke: #000000; stroke-width: 0.8"/>
      </g>
     </g>
    </g>
    <g id="xtick_11">
     <g id="line2d_35">
      <g>
       <use xlink:href="#m1e2fe81ecb" x="230.9546" y="189.196138" style="stroke: #000000; stroke-width: 0.8"/>
      </g>
     </g>
    </g>
    <g id="xtick_12">
     <g id="line2d_36">
      <g>
       <use xlink:href="#m1e2fe81ecb" x="295.1246" y="189.196138" style="stroke: #000000; stroke-width: 0.8"/>
      </g>
     </g>
    </g>
   </g>
   <g id="matplotlib.axis_6">
    <g id="ytick_7">
     <g id="line2d_37">
      <g>
       <use xlink:href="#m8ae0c4ad13" x="70.5296" y="186.973963" style="stroke: #000000; stroke-width: 0.8"/>
      </g>
     </g>
     <g id="text_11">
      <text style="font-size: 6px; font-family: 'Arial', 'Helvetica', 'DejaVu Sans', sans-serif; text-anchor: end" x="63.5296" y="189.253494" transform="rotate(-0 63.5296 189.253494)">0.0</text>
     </g>
    </g>
    <g id="ytick_8">
     <g id="line2d_38">
      <g>
       <use xlink:href="#m8ae0c4ad13" x="70.5296" y="164.752212" style="stroke: #000000; stroke-width: 0.8"/>
      </g>
     </g>
     <g id="text_12">
      <text style="font-size: 6px; font-family: 'Arial', 'Helvetica', 'DejaVu Sans', sans-serif; text-anchor: end" x="63.5296" y="167.031743" transform="rotate(-0 63.5296 167.031743)">0.5</text>
     </g>
    </g>
    <g id="ytick_9">
     <g id="line2d_39">
      <g>
       <use xlink:href="#m8ae0c4ad13" x="70.5296" y="142.530462" style="stroke: #000000; stroke-width: 0.8"/>
      </g>
     </g>
     <g id="text_13">
      <text style="font-size: 6px; font-family: 'Arial', 'Helvetica', 'DejaVu Sans', sans-serif; text-anchor: end" x="63.5296" y="144.809993" transform="rotate(-0 63.5296 144.809993)">1.0</text>
     </g>
    </g>
    <g id="text_14">
     <!-- d$w$ (z) -->
     <g transform="translate(12.604219 173.97669) rotate(-90)">
      <text>
       <tspan x="0" y="-0.6875" style="font-size: 7px; font-family: 'DejaVu Sans'">d</tspan>
       <tspan x="10.168457" y="-0.6875" style="font-size: 7px; font-family: 'DejaVu Sans'"> </tspan>
       <tspan x="12.393555" y="-0.6875" style="font-size: 7px; font-family: 'DejaVu Sans'">(</tspan>
       <tspan x="15.124512" y="-0.6875" style="font-size: 7px; font-family: 'DejaVu Sans'">z</tspan>
       <tspan x="18.798828" y="-0.6875" style="font-size: 7px; font-family: 'DejaVu Sans'">)</tspan>
       <tspan x="4.443359" y="-0.6875" style="font-style: oblique; font-size: 7px; font-family: 'DejaVu Sans'">w</tspan>
      </text>
     </g>
    </g>
   </g>
   <g id="line2d_40">
    <path d="M 70.5296 186.909593 
L 73.20335 186.675595 
L 75.8771 185.694609 
L 78.55085 183.397699 
L 81.2246 180.142353 
L 83.89835 176.239305 
L 86.5721 171.60311 
L 89.24585 166.162109 
L 91.9196 159.308094 
L 94.59335 152.256017 
L 97.2671 146.101838 
L 99.94085 141.158369 
L 102.6146 137.912542 
L 105.28835 136.331331 
L 107.9621 135.79338 
L 110.63585 135.88373 
L 113.3096 136.519904 
L 115.98335 137.642754 
L 118.6571 139.003265 
L 121.33085 140.13919 
L 124.0046 140.680909 
L 126.67835 140.758824 
L 129.3521 140.984952 
L 132.02585 141.557859 
L 134.6996 142.024329 
L 134.6996 142.024329 
L 137.37335 142.200406 
L 140.0471 142.240358 
L 142.72085 142.26054 
L 145.3946 142.263695 
L 148.06835 142.237652 
L 150.7421 142.19855 
L 153.41585 142.169641 
L 156.0896 142.172652 
L 158.76335 142.233665 
L 161.4371 142.36919 
L 164.11085 142.56378 
L 166.7846 142.771444 
L 169.45835 142.938746 
L 172.1321 143.024951 
L 174.80585 143.011337 
L 177.4796 142.90576 
L 180.15335 142.741275 
L 182.8271 142.564826 
L 185.50085 142.422239 
L 188.1746 142.348106 
L 190.84835 142.359393 
L 193.5221 142.449229 
L 196.19585 142.585219 
L 198.8696 142.718513 
L 198.8696 142.718513 
L 201.54335 142.80127 
L 204.2171 142.803829 
L 206.89085 142.725524 
L 209.5646 142.595929 
L 212.23835 142.463779 
L 214.9121 142.37595 
L 217.58585 142.357243 
L 220.2596 142.401918 
L 222.93335 142.478794 
L 225.6071 142.544871 
L 228.28085 142.563052 
L 230.9546 142.519711 
L 233.62835 142.43403 
L 236.3021 142.351725 
L 238.97585 142.325805 
L 241.6496 142.395898 
L 244.32335 142.575425 
L 246.9971 142.84788 
L 249.67085 143.170623 
L 252.3446 143.486614 
L 255.01835 143.742843 
L 257.6921 143.908056 
L 260.36585 143.980487 
L 263.0396 143.982694 
L 263.0396 143.982694 
L 265.71335 143.94854 
L 268.3871 143.909631 
L 271.06085 143.885963 
L 273.7346 143.882814 
L 276.40835 143.893877 
L 279.0821 143.908323 
L 281.75585 143.917641 
L 284.4296 143.918984 
L 287.10335 143.914709 
L 289.7771 143.909812 
L 292.45085 143.908956 
L 295.1246 143.914143 
L 297.79835 143.923898 
L 300.4721 143.934433 
L 303.14585 143.941998 
L 305.8196 143.944789 
L 308.49335 143.943314 
L 311.1671 143.939503 
L 313.84085 143.935532 
L 316.5146 143.93283 
L 319.18835 143.931167 
L 321.8621 143.927912 
L 324.53585 143.91825 
L 327.2096 143.897281 
" clip-path="url(#p93059d1f5e)" style="fill: none; stroke: #4a6fa5; stroke-width: 1.4; stroke-linecap: square"/>
   </g>
   <g id="line2d_41">
    <path d="M 70.5296 142.530462 
L 73.20335 142.530462 
L 75.8771 142.530462 
L 78.55085 142.530462 
L 81.2246 142.530462 
L 83.89835 142.530462 
L 86.5721 142.530462 
L 89.24585 142.530462 
L 91.9196 142.530462 
L 94.59335 142.530462 
L 97.2671 142.530462 
L 99.94085 142.530462 
L 102.6146 142.530462 
L 105.28835 142.530462 
L 107.9621 142.530462 
L 110.63585 142.530462 
L 113.3096 142.530462 
L 115.98335 142.530462 
L 118.6571 142.530462 
L 121.33085 142.530462 
L 124.0046 142.530462 
L 126.67835 142.530462 
L 129.3521 142.530462 
L 132.02585 142.530462 
L 134.6996 142.530462 
L 134.6996 142.530462 
L 137.37335 142.530462 
L 140.0471 142.530462 
L 142.72085 142.530462 
L 145.3946 142.530462 
L 148.06835 142.530462 
L 150.7421 142.530462 
L 153.41585 142.530462 
L 156.0896 142.530462 
L 158.76335 142.530462 
L 161.4371 142.530462 
L 164.11085 142.530462 
L 166.7846 142.530462 
L 169.45835 142.530462 
L 172.1321 142.530462 
L 174.80585 142.530462 
L 177.4796 142.530462 
L 180.15335 142.530462 
L 182.8271 142.530462 
L 185.50085 142.530462 
L 188.1746 142.530462 
L 190.84835 142.530462 
L 193.5221 142.530462 
L 196.19585 142.530462 
L 198.8696 142.530462 
L 198.8696 142.530462 
L 201.54335 142.530462 
L 204.2171 142.530462 
L 206.89085 142.530462 
L 209.5646 142.530462 
L 212.23835 142.530462 
L 214.9121 142.530462 
L 217.58585 142.530462 
L 220.2596 142.530462 
L 222.93335 142.530462 
L 225.6071 142.530462 
L 228.28085 142.530462 
L 230.9546 142.530462 
L 233.62835 142.530462 
L 236.3021 142.530462 
L 238.97585 142.530462 
L 241.6496 142.530462 
L 244.32335 142.530462 
L 246.9971 142.530462 
L 249.67085 142.530462 
L 252.3446 142.530462 
L 255.01835 142.530462 
L 257.6921 142.530462 
L 260.36585 142.530462 
L 263.0396 142.530462 
L 263.0396 142.530462 
L 265.71335 142.530462 
L 268.3871 142.530462 
L 271.06085 142.530462 
L 273.7346 142.530462 
L 276.40835 142.530462 
L 279.0821 142.530462 
L 281.75585 142.530462 
L 284.4296 142.530462 
L 287.10335 142.530462 
L 289.7771 142.530462 
L 292.45085 142.530462 
L 295.1246 142.530462 
L 297.79835 142.530462 
L 300.4721 142.530462 
L 303.14585 142.530462 
L 305.8196 142.530462 
L 308.49335 142.530462 
L 311.1671 142.530462 
L 313.84085 142.530462 
L 316.5146 142.530462 
L 319.18835 142.530462 
L 321.8621 142.530462 
L 324.53585 142.530462 
L 327.2096 142.530462 
" clip-path="url(#p93059d1f5e)" style="fill: none; stroke-dasharray: 3.33,1.44; stroke-dashoffset: 0; stroke: #7f7f7f; stroke-width: 0.9"/>
   </g>
   <g id="patch_10">
    <path d="M 70.5296 189.196138 
L 70.5296 137.197241 
" style="fill: none; stroke: #000000; stroke-width: 0.8; stroke-linejoin: miter; stroke-linecap: square"/>
   </g>
   <g id="patch_11">
    <path d="M 70.5296 189.196138 
L 327.2096 189.196138 
" style="fill: none; stroke: #000000; stroke-width: 0.8; stroke-linejoin: miter; stroke-linecap: square"/>
   </g>
  </g>
  <g id="axes_4">
   <g id="patch_12">
    <path d="M 70.5296 254.194759 
L 327.2096 254.194759 
L 327.2096 202.195862 
L 70.5296 202.195862 
z
" style="fill: #ffffff"/>
   </g>
   <g id="line2d_42">
    <path d="M 70.5296 251.972584 
L 327.2096 251.972584 
" clip-path="url(#p449a82ed92)" style="fill: none; stroke: #cccccc; stroke-width: 0.6; stroke-linecap: square"/>
   </g>
   <g id="line2d_43">
    <path d="M 134.6996 254.194759 
L 134.6996 202.195862 
" clip-path="url(#p449a82ed92)" style="fill: none; stroke-dasharray: 0.6,0.99; stroke-dashoffset: 0; stroke: #cccccc; stroke-width: 0.6"/>
   </g>
   <g id="line2d_44">
    <path d="M 198.8696 254.194759 
L 198.8696 202.195862 
" clip-path="url(#p449a82ed92)" style="fill: none; stroke-dasharray: 0.6,0.99; stroke-dashoffset: 0; stroke: #cccccc; stroke-width: 0.6"/>
   </g>
   <g id="line2d_45">
    <path d="M 263.0396 254.194759 
L 263.0396 202.195862 
" clip-path="url(#p449a82ed92)" style="fill: none; stroke-dasharray: 0.6,0.99; stroke-dashoffset: 0; stroke: #cccccc; stroke-width: 0.6"/>
   </g>
   <g id="FillBetweenPolyCollection_4">
    <defs>
     <path id="mcb2ea69bd6" d="M 70.5296 -192.558932 
L 70.5296 -192.398823 
L 73.20335 -192.573188 
L 75.8771 -192.923714 
L 78.55085 -193.594883 
L 81.2246 -194.812055 
L 83.89835 -196.718724 
L 86.5721 -199.298104 
L 89.24585 -202.421628 
L 91.9196 -205.948106 
L 94.59335 -209.836205 
L 97.2671 -214.275052 
L 99.94085 -219.572623 
L 102.6146 -225.585549 
L 105.28835 -231.444738 
L 107.9621 -236.215577 
L 110.63585 -239.586887 
L 113.3096 -241.738009 
L 115.98335 -242.9548 
L 118.6571 -243.446328 
L 121.33085 -243.303536 
L 124.0046 -242.522497 
L 126.67835 -241.12153 
L 129.3521 -239.329621 
L 132.02585 -237.603 
L 134.6996 -236.328323 
L 134.6996 -236.328323 
L 137.37335 -235.709049 
L 140.0471 -235.870332 
L 142.72085 -236.435798 
L 145.3946 -236.925537 
L 148.06835 -237.115731 
L 150.7421 -237.024354 
L 153.41585 -236.745708 
L 156.0896 -236.361769 
L 158.76335 -236.050429 
L 161.4371 -236.039335 
L 164.11085 -236.335775 
L 166.7846 -236.752212 
L 169.45835 -237.019225 
L 172.1321 -237.068938 
L 174.80585 -236.963486 
L 177.4796 -236.751934 
L 180.15335 -236.474455 
L 182.8271 -236.279452 
L 185.50085 -236.304471 
L 188.1746 -236.508887 
L 190.84835 -236.698741 
L 193.5221 -236.779927 
L 196.19585 -236.767071 
L 198.8696 -236.674327 
L 198.8696 -236.674327 
L 201.54335 -236.527529 
L 204.2171 -236.367023 
L 206.89085 -236.27075 
L 209.5646 -236.278215 
L 212.23835 -236.314792 
L 214.9121 -236.27188 
L 217.58585 -236.102708 
L 220.2596 -235.807012 
L 222.93335 -235.419873 
L 225.6071 -235.015966 
L 228.28085 -234.694411 
L 230.9546 -234.530198 
L 233.62835 -234.526263 
L 236.3021 -234.614085 
L 238.97585 -234.701108 
L 241.6496 -234.72102 
L 244.32335 -234.655659 
L 246.9971 -234.532492 
L 249.67085 -234.409222 
L 252.3446 -234.346914 
L 255.01835 -234.376644 
L 257.6921 -234.481227 
L 260.36585 -234.608804 
L 263.0396 -234.704696 
L 263.0396 -234.704696 
L 265.71335 -234.735896 
L 268.3871 -234.700303 
L 271.06085 -234.625413 
L 273.7346 -234.557432 
L 276.40835 -234.539404 
L 279.0821 -234.58707 
L 281.75585 -234.680708 
L 284.4296 -234.77962 
L 287.10335 -234.845512 
L 289.7771 -234.85854 
L 292.45085 -234.822545 
L 295.1246 -234.762672 
L 297.79835 -234.715804 
L 300.4721 -234.713742 
L 303.14585 -234.766185 
L 305.8196 -234.855525 
L 308.49335 -234.947269 
L 311.1671 -235.007129 
L 313.84085 -235.014304 
L 316.5146 -234.968959 
L 319.18835 -234.897206 
L 321.8621 -234.853492 
L 324.53585 -234.912705 
L 327.2096 -235.14269 
L 327.2096 -236.741664 
L 327.2096 -236.741664 
L 324.53585 -236.490117 
L 321.8621 -236.425955 
L 319.18835 -236.465415 
L 316.5146 -236.53698 
L 313.84085 -236.583984 
L 311.1671 -236.574247 
L 308.49335 -236.506538 
L 305.8196 -236.406472 
L 303.14585 -236.312313 
L 300.4721 -236.257425 
L 297.79835 -236.257085 
L 295.1246 -236.302937 
L 292.45085 -236.365378 
L 289.7771 -236.404916 
L 287.10335 -236.390871 
L 284.4296 -236.318522 
L 281.75585 -236.213279 
L 279.0821 -236.118018 
L 276.40835 -236.071348 
L 273.7346 -236.089486 
L 271.06085 -236.158368 
L 268.3871 -236.237179 
L 265.71335 -236.274883 
L 263.0396 -236.236638 
L 263.0396 -236.236638 
L 260.36585 -236.126018 
L 257.6921 -235.987093 
L 255.01835 -235.882669 
L 252.3446 -235.86219 
L 249.67085 -235.937988 
L 246.9971 -236.078049 
L 244.32335 -236.217499 
L 241.6496 -236.289243 
L 238.97585 -236.260986 
L 236.3021 -236.155031 
L 233.62835 -236.03715 
L 230.9546 -235.983043 
L 228.28085 -236.044092 
L 225.6071 -236.225558 
L 222.93335 -236.479412 
L 220.2596 -236.717157 
L 217.58585 -236.850874 
L 214.9121 -236.847407 
L 212.23835 -236.756705 
L 209.5646 -236.67502 
L 206.89085 -236.659086 
L 204.2171 -236.732185 
L 201.54335 -236.906362 
L 198.8696 -237.121459 
L 198.8696 -237.121459 
L 196.19585 -237.246336 
L 193.5221 -237.192218 
L 190.84835 -236.976495 
L 188.1746 -236.747602 
L 185.50085 -236.628317 
L 182.8271 -236.61903 
L 180.15335 -236.735518 
L 177.4796 -236.988802 
L 174.80585 -237.280254 
L 172.1321 -237.405952 
L 169.45835 -237.283514 
L 166.7846 -237.017295 
L 164.11085 -236.760102 
L 161.4371 -236.568149 
L 158.76335 -236.525821 
L 156.0896 -236.690622 
L 153.41585 -237.067489 
L 150.7421 -237.449531 
L 148.06835 -237.557954 
L 145.3946 -237.305957 
L 142.72085 -236.819723 
L 140.0471 -236.346408 
L 137.37335 -236.184198 
L 134.6996 -236.719593 
L 134.6996 -236.719593 
L 132.02585 -238.309635 
L 129.3521 -240.550499 
L 126.67835 -242.705491 
L 124.0046 -244.334824 
L 121.33085 -245.371141 
L 118.6571 -245.907856 
L 115.98335 -246.012832 
L 113.3096 -245.613291 
L 110.63585 -244.406794 
L 107.9621 -241.858472 
L 105.28835 -237.509945 
L 102.6146 -231.58704 
L 99.94085 -225.076782 
L 97.2671 -218.980649 
L 94.59335 -213.765325 
L 91.9196 -209.346492 
L 89.24585 -205.341683 
L 86.5721 -201.554259 
L 83.89835 -198.217411 
L 81.2246 -195.69423 
L 78.55085 -194.07156 
L 75.8771 -193.163367 
L 73.20335 -192.733298 
L 70.5296 -192.558932 
z
"/>
    </defs>
    <g clip-path="url(#p449a82ed92)">
     <use xlink:href="#mcb2ea69bd6" x="0" y="444.27" style="fill: #4a6fa5; fill-opacity: 0.18"/>
    </g>
   </g>
   <g id="matplotlib.axis_7">
    <g id="xtick_13">
     <g id="line2d_46">
      <g>
       <use xlink:href="#m1e2fe81ecb" x="102.6146" y="254.194759" style="stroke: #000000; stroke-width: 0.8"/>
      </g>
     </g>
    </g>
    <g id="xtick_14">
     <g id="line2d_47">
      <g>
       <use xlink:href="#m1e2fe81ecb" x="166.7846" y="254.194759" style="stroke: #000000; stroke-width: 0.8"/>
      </g>
     </g>
    </g>
    <g id="xtick_15">
     <g id="line2d_48">
      <g>
       <use xlink:href="#m1e2fe81ecb" x="230.9546" y="254.194759" style="stroke: #000000; stroke-width: 0.8"/>
      </g>
     </g>
    </g>
    <g id="xtick_16">
     <g id="line2d_49">
      <g>
       <use xlink:href="#m1e2fe81ecb" x="295.1246" y="254.194759" style="stroke: #000000; stroke-width: 0.8"/>
      </g>
     </g>
    </g>
   </g>
   <g id="matplotlib.axis_8">
    <g id="ytick_10">
     <g id="line2d_50">
      <g>
       <use xlink:href="#m8ae0c4ad13" x="70.5296" y="251.972584" style="stroke: #000000; stroke-width: 0.8"/>
      </g>
     </g>
     <g id="text_15">
      <text style="font-size: 6px; font-family: 'Arial', 'Helvetica', 'DejaVu Sans', sans-serif; text-anchor: end" x="63.5296" y="254.252115" transform="rotate(-0 63.5296 254.252115)">0.0</text>
     </g>
    </g>
    <g id="ytick_11">
     <g id="line2d_51">
      <g>
       <use xlink:href="#m8ae0c4ad13" x="70.5296" y="229.750833" style="stroke: #000000; stroke-width: 0.8"/>
      </g>
     </g>
     <g id="text_16">
      <text style="font-size: 6px; font-family: 'Arial', 'Helvetica', 'DejaVu Sans', sans-serif; text-anchor: end" x="63.5296" y="232.030364" transform="rotate(-0 63.5296 232.030364)">0.5</text>
     </g>
    </g>
    <g id="ytick_12">
     <g id="line2d_52">
      <g>
       <use xlink:href="#m8ae0c4ad13" x="70.5296" y="207.529082" style="stroke: #000000; stroke-width: 0.8"/>
      </g>
     </g>
     <g id="text_17">
      <text style="font-size: 6px; font-family: 'Arial', 'Helvetica', 'DejaVu Sans', sans-serif; text-anchor: end" x="63.5296" y="209.808613" transform="rotate(-0 63.5296 209.808613)">1.0</text>
     </g>
    </g>
    <g id="text_18">
     <!-- d$\phi$ (roll) -->
     <g transform="translate(12.59 242.12531) rotate(-90)">
      <text>
       <tspan x="0" y="-0.6875" style="font-size: 7px; font-family: 'DejaVu Sans'">d</tspan>
       <tspan x="9.061035" y="-0.6875" style="font-size: 7px; font-family: 'DejaVu Sans'"> </tspan>
       <tspan x="11.286133" y="-0.6875" style="font-size: 7px; font-family: 'DejaVu Sans'">(</tspan>
       <tspan x="14.01709" y="-0.6875" style="font-size: 7px; font-family: 'DejaVu Sans'">r</tspan>
       <tspan x="16.89502" y="-0.6875" style="font-size: 7px; font-family: 'DejaVu Sans'">o</tspan>
       <tspan x="21.177734" y="-0.6875" style="font-size: 7px; font-family: 'DejaVu Sans'">l</tspan>
       <tspan x="23.122559" y="-0.6875" style="font-size: 7px; font-family: 'DejaVu Sans'">l</tspan>
       <tspan x="25.067383" y="-0.6875" style="font-size: 7px; font-family: 'DejaVu Sans'">)</tspan>
       <tspan x="4.443359" y="-0.6875" style="font-style: oblique; font-size: 7px; font-family: 'DejaVu Sans'">ϕ</tspan>
      </text>
     </g>
    </g>
   </g>
   <g id="line2d_53">
    <path d="M 70.5296 251.791123 
L 73.20335 251.616757 
L 75.8771 251.226459 
L 78.55085 250.436779 
L 81.2246 249.016857 
L 83.89835 246.801933 
L 86.5721 243.843818 
L 89.24585 240.388344 
L 91.9196 236.622701 
L 94.59335 232.469235 
L 97.2671 227.64215 
L 99.94085 221.945298 
L 102.6146 215.683706 
L 105.28835 209.792659 
L 107.9621 205.232975 
L 110.63585 202.273159 
L 113.3096 200.59435 
L 115.98335 199.786184 
L 118.6571 199.592908 
L 121.33085 199.932661 
L 124.0046 200.84134 
L 126.67835 202.35649 
L 129.3521 204.32994 
L 132.02585 206.313683 
L 134.6996 207.746042 
L 134.6996 207.746042 
L 137.37335 208.323376 
L 140.0471 208.16163 
L 142.72085 207.642239 
L 145.3946 207.154253 
L 148.06835 206.933158 
L 150.7421 207.033057 
L 153.41585 207.363401 
L 156.0896 207.743805 
L 158.76335 207.981875 
L 161.4371 207.966258 
L 164.11085 207.722061 
L 166.7846 207.385246 
L 169.45835 207.11863 
L 172.1321 207.032555 
L 174.80585 207.14813 
L 177.4796 207.399632 
L 180.15335 207.665014 
L 182.8271 207.820759 
L 185.50085 207.803606 
L 188.1746 207.641756 
L 190.84835 207.432382 
L 193.5221 207.283928 
L 196.19585 207.263297 
L 198.8696 207.372107 
L 198.8696 207.372107 
L 201.54335 207.553054 
L 204.2171 207.720396 
L 206.89085 207.805082 
L 209.5646 207.793382 
L 212.23835 207.734251 
L 214.9121 207.710357 
L 217.58585 207.793209 
L 220.2596 208.007915 
L 222.93335 208.320357 
L 225.6071 208.649238 
L 228.28085 208.900749 
L 230.9546 209.01338 
L 233.62835 208.988293 
L 236.3021 208.885442 
L 238.97585 208.788953 
L 241.6496 208.764868 
L 244.32335 208.833421 
L 246.9971 208.96473 
L 249.67085 209.096395 
L 252.3446 209.165448 
L 255.01835 209.140344 
L 257.6921 209.03584 
L 260.36585 208.902589 
L 263.0396 208.799333 
L 263.0396 208.799333 
L 265.71335 208.76461 
L 268.3871 208.801259 
L 271.06085 208.87811 
L 273.7346 208.946541 
L 276.40835 208.964624 
L 279.0821 208.917456 
L 281.75585 208.823006 
L 284.4296 208.720929 
L 287.10335 208.651808 
L 289.7771 208.638272 
L 292.45085 208.676038 
L 295.1246 208.737196 
L 297.79835 208.783555 
L 300.4721 208.784417 
L 303.14585 208.730751 
L 305.8196 208.639001 
L 308.49335 208.543097 
L 311.1671 208.479312 
L 313.84085 208.470856 
L 316.5146 208.517031 
L 319.18835 208.588689 
L 321.8621 208.630276 
L 324.53585 208.568589 
L 327.2096 208.327823 
" clip-path="url(#p449a82ed92)" style="fill: none; stroke: #4a6fa5; stroke-width: 1.4; stroke-linecap: square"/>
   </g>
   <g id="line2d_54">
    <path d="M 70.5296 207.529082 
L 73.20335 207.529082 
L 75.8771 207.529082 
L 78.55085 207.529082 
L 81.2246 207.529082 
L 83.89835 207.529082 
L 86.5721 207.529082 
L 89.24585 207.529082 
L 91.9196 207.529082 
L 94.59335 207.529082 
L 97.2671 207.529082 
L 99.94085 207.529082 
L 102.6146 207.529082 
L 105.28835 207.529082 
L 107.9621 207.529082 
L 110.63585 207.529082 
L 113.3096 207.529082 
L 115.98335 207.529082 
L 118.6571 207.529082 
L 121.33085 207.529082 
L 124.0046 207.529082 
L 126.67835 207.529082 
L 129.3521 207.529082 
L 132.02585 207.529082 
L 134.6996 207.529082 
L 134.6996 207.529082 
L 137.37335 207.529082 
L 140.0471 207.529082 
L 142.72085 207.529082 
L 145.3946 207.529082 
L 148.06835 207.529082 
L 150.7421 207.529082 
L 153.41585 207.529082 
L 156.0896 207.529082 
L 158.76335 207.529082 
L 161.4371 207.529082 
L 164.11085 207.529082 
L 166.7846 207.529082 
L 169.45835 207.529082 
L 172.1321 207.529082 
L 174.80585 207.529082 
L 177.4796 207.529082 
L 180.15335 207.529082 
L 182.8271 207.529082 
L 185.50085 207.529082 
L 188.1746 207.529082 
L 190.84835 207.529082 
L 193.5221 207.529082 
L 196.19585 207.529082 
L 198.8696 207.529082 
L 198.8696 207.529082 
L 201.54335 207.529082 
L 204.2171 207.529082 
L 206.89085 207.529082 
L 209.5646 207.529082 
L 212.23835 207.529082 
L 214.9121 207.529082 
L 217.58585 207.529082 
L 220.2596 207.529082 
L 222.93335 207.529082 
L 225.6071 207.529082 
L 228.28085 207.529082 
L 230.9546 207.529082 
L 233.62835 207.529082 
L 236.3021 207.529082 
L 238.97585 207.529082 
L 241.6496 207.529082 
L 244.32335 207.529082 
L 246.9971 207.529082 
L 249.67085 207.529082 
L 252.3446 207.529082 
L 255.01835 207.529082 
L 257.6921 207.529082 
L 260.36585 207.529082 
L 263.0396 207.529082 
L 263.0396 207.529082 
L 265.71335 207.529082 
L 268.3871 207.529082 
L 271.06085 207.529082 
L 273.7346 207.529082 
L 276.40835 207.529082 
L 279.0821 207.529082 
L 281.75585 207.529082 
L 284.4296 207.529082 
L 287.10335 207.529082 
L 289.7771 207.529082 
L 292.45085 207.529082 
L 295.1246 207.529082 
L 297.79835 207.529082 
L 300.4721 207.529082 
L 303.14585 207.529082 
L 305.8196 207.529082 
L 308.49335 207.529082 
L 311.1671 207.529082 
L 313.84085 207.529082 
L 316.5146 207.529082 
L 319.18835 207.529082 
L 321.8621 207.529082 
L 324.53585 207.529082 
L 327.2096 207.529082 
" clip-path="url(#p449a82ed92)" style="fill: none; stroke-dasharray: 3.33,1.44; stroke-dashoffset: 0; stroke: #7f7f7f; stroke-width: 0.9"/>
   </g>
   <g id="patch_13">
    <path d="M 70.5296 254.194759 
L 70.5296 202.195862 
" style="fill: none; stroke: #000000; stroke-width: 0.8; stroke-linejoin: miter; stroke-linecap: square"/>
   </g>
   <g id="patch_14">
    <path d="M 70.5296 254.194759 
L 327.2096 254.194759 
" style="fill: none; stroke: #000000; stroke-width: 0.8; stroke-linejoin: miter; stroke-linecap: square"/>
   </g>
  </g>
  <g id="axes_5">
   <g id="patch_15">
    <path d="M 70.5296 319.193379 
L 327.2096 319.193379 
L 327.2096 267.194483 
L 70.5296 267.194483 
z
" style="fill: #ffffff"/>
   </g>
   <g id="line2d_55">
    <path d="M 70.5296 316.971204 
L 327.2096 316.971204 
" clip-path="url(#pcbdeed5e38)" style="fill: none; stroke: #cccccc; stroke-width: 0.6; stroke-linecap: square"/>
   </g>
   <g id="line2d_56">
    <path d="M 134.6996 319.193379 
L 134.6996 267.194483 
" clip-path="url(#pcbdeed5e38)" style="fill: none; stroke-dasharray: 0.6,0.99; stroke-dashoffset: 0; stroke: #cccccc; stroke-width: 0.6"/>
   </g>
   <g id="line2d_57">
    <path d="M 198.8696 319.193379 
L 198.8696 267.194483 
" clip-path="url(#pcbdeed5e38)" style="fill: none; stroke-dasharray: 0.6,0.99; stroke-dashoffset: 0; stroke: #cccccc; stroke-width: 0.6"/>
   </g>
   <g id="line2d_58">
    <path d="M 263.0396 319.193379 
L 263.0396 267.194483 
" clip-path="url(#pcbdeed5e38)" style="fill: none; stroke-dasharray: 0.6,0.99; stroke-dashoffset: 0; stroke: #cccccc; stroke-width: 0.6"/>
   </g>
   <g id="FillBetweenPolyCollection_5">
    <defs>
     <path id="m75771644ab" d="M 70.5296 -127.445817 
L 70.5296 -127.359058 
L 73.20335 -127.539768 
L 75.8771 -128.014483 
L 78.55085 -128.987165 
L 81.2246 -130.611701 
L 83.89835 -132.899303 
L 86.5721 -135.738688 
L 89.24585 -139.022229 
L 91.9196 -142.700922 
L 94.59335 -146.707952 
L 97.2671 -150.892875 
L 99.94085 -155.077444 
L 102.6146 -159.097122 
L 105.28835 -162.797502 
L 107.9621 -166.058686 
L 110.63585 -168.797523 
L 113.3096 -170.949882 
L 115.98335 -172.470882 
L 118.6571 -173.352336 
L 121.33085 -173.643444 
L 124.0046 -173.461423 
L 126.67835 -172.973494 
L 129.3521 -172.36518 
L 132.02585 -171.80076 
L 134.6996 -171.360527 
L 134.6996 -171.360527 
L 137.37335 -171.082076 
L 140.0471 -171.081652 
L 142.72085 -171.312753 
L 145.3946 -171.602093 
L 148.06835 -171.811099 
L 150.7421 -171.886313 
L 153.41585 -171.831235 
L 156.0896 -171.681483 
L 158.76335 -171.519256 
L 161.4371 -171.458966 
L 164.11085 -171.541993 
L 166.7846 -171.707822 
L 169.45835 -171.873784 
L 172.1321 -171.989541 
L 174.80585 -172.027276 
L 177.4796 -171.97949 
L 180.15335 -171.872431 
L 182.8271 -171.77209 
L 185.50085 -171.741125 
L 188.1746 -171.783957 
L 190.84835 -171.862283 
L 193.5221 -171.944389 
L 196.19585 -172.006851 
L 198.8696 -172.031029 
L 198.8696 -172.031029 
L 201.54335 -172.019525 
L 204.2171 -172.003144 
L 206.89085 -172.011915 
L 209.5646 -172.031813 
L 212.23835 -172.014405 
L 214.9121 -171.94061 
L 217.58585 -171.820009 
L 220.2596 -171.665226 
L 222.93335 -171.493294 
L 225.6071 -171.329692 
L 228.28085 -171.208433 
L 230.9546 -171.167893 
L 233.62835 -171.233362 
L 236.3021 -171.393927 
L 238.97585 -171.596662 
L 241.6496 -171.765632 
L 244.32335 -171.836514 
L 246.9971 -171.789145 
L 249.67085 -171.657299 
L 252.3446 -171.507038 
L 255.01835 -171.397567 
L 257.6921 -171.346648 
L 260.36585 -171.321855 
L 263.0396 -171.301513 
L 263.0396 -171.301513 
L 265.71335 -171.322995 
L 268.3871 -171.39005 
L 271.06085 -171.458999 
L 273.7346 -171.496066 
L 276.40835 -171.502805 
L 279.0821 -171.495456 
L 281.75585 -171.48113 
L 284.4296 -171.4609 
L 287.10335 -171.446128 
L 289.7771 -171.451245 
L 292.45085 -171.474147 
L 295.1246 -171.498783 
L 297.79835 -171.513289 
L 300.4721 -171.517941 
L 303.14585 -171.516521 
L 305.8196 -171.508609 
L 308.49335 -171.494955 
L 311.1671 -171.48559 
L 313.84085 -171.492307 
L 316.5146 -171.513789 
L 319.18835 -171.535516 
L 321.8621 -171.546553 
L 324.53585 -171.545955 
L 327.2096 -171.502027 
L 327.2096 -172.220718 
L 327.2096 -172.220718 
L 324.53585 -172.264622 
L 321.8621 -172.281622 
L 319.18835 -172.266165 
L 316.5146 -172.242927 
L 313.84085 -172.224173 
L 311.1671 -172.211727 
L 308.49335 -172.209797 
L 305.8196 -172.224096 
L 303.14585 -172.250056 
L 300.4721 -172.271043 
L 297.79835 -172.273027 
L 295.1246 -172.255802 
L 292.45085 -172.228558 
L 289.7771 -172.199579 
L 287.10335 -172.176515 
L 284.4296 -172.17322 
L 281.75585 -172.202933 
L 279.0821 -172.256081 
L 276.40835 -172.298868 
L 273.7346 -172.302477 
L 271.06085 -172.263187 
L 268.3871 -172.194642 
L 265.71335 -172.114083 
L 263.0396 -172.057747 
L 263.0396 -172.057747 
L 260.36585 -172.110834 
L 257.6921 -172.359046 
L 255.01835 -172.769693 
L 252.3446 -173.234559 
L 249.67085 -173.649259 
L 246.9971 -173.940053 
L 244.32335 -174.069379 
L 241.6496 -174.028719 
L 238.97585 -173.832204 
L 236.3021 -173.520636 
L 233.62835 -173.165682 
L 230.9546 -172.857367 
L 228.28085 -172.671723 
L 225.6071 -172.63377 
L 222.93335 -172.702204 
L 220.2596 -172.794882 
L 217.58585 -172.837569 
L 214.9121 -172.800594 
L 212.23835 -172.711165 
L 209.5646 -172.636169 
L 206.89085 -172.619983 
L 204.2171 -172.645368 
L 201.54335 -172.67825 
L 198.8696 -172.690661 
L 198.8696 -172.690661 
L 196.19585 -172.655155 
L 193.5221 -172.554949 
L 190.84835 -172.410278 
L 188.1746 -172.284282 
L 185.50085 -172.240076 
L 182.8271 -172.289515 
L 180.15335 -172.40581 
L 177.4796 -172.545438 
L 174.80585 -172.642135 
L 172.1321 -172.626891 
L 169.45835 -172.480254 
L 166.7846 -172.259225 
L 164.11085 -172.068615 
L 161.4371 -171.984477 
L 158.76335 -172.024415 
L 156.0896 -172.175472 
L 153.41585 -172.384961 
L 150.7421 -172.535198 
L 148.06835 -172.520611 
L 145.3946 -172.327588 
L 142.72085 -172.037824 
L 140.0471 -171.779301 
L 137.37335 -171.687292 
L 134.6996 -171.923648 
L 134.6996 -171.923648 
L 132.02585 -172.595131 
L 129.3521 -173.503264 
L 126.67835 -174.369549 
L 124.0046 -175.007058 
L 121.33085 -175.328449 
L 118.6571 -175.304331 
L 115.98335 -174.895694 
L 113.3096 -174.005798 
L 110.63585 -172.483521 
L 107.9621 -170.164375 
L 105.28835 -166.947209 
L 102.6146 -162.891058 
L 99.94085 -158.264592 
L 97.2671 -153.483977 
L 94.59335 -148.940321 
L 91.9196 -144.807537 
L 89.24585 -141.046524 
L 86.5721 -137.588398 
L 83.89835 -134.45533 
L 81.2246 -131.77711 
L 78.55085 -129.73218 
L 75.8771 -128.417357 
L 73.20335 -127.733724 
L 70.5296 -127.445817 
z
"/>
    </defs>
    <g clip-path="url(#pcbdeed5e38)">
     <use xlink:href="#m75771644ab" x="0" y="444.27" style="fill: #4a6fa5; fill-opacity: 0.18"/>
    </g>
   </g>
   <g id="matplotlib.axis_9">
    <g id="xtick_17">
     <g id="line2d_59">
      <g>
       <use xlink:href="#m1e2fe81ecb" x="102.6146" y="319.193379" style="stroke: #000000; stroke-width: 0.8"/>
      </g>
     </g>
    </g>
    <g id="xtick_18">
     <g id="line2d_60">
      <g>
       <use xlink:href="#m1e2fe81ecb" x="166.7846" y="319.193379" style="stroke: #000000; stroke-width: 0.8"/>
      </g>
     </g>
    </g>
    <g id="xtick_19">
     <g id="line2d_61">
      <g>
       <use xlink:href="#m1e2fe81ecb" x="230.9546" y="319.193379" style="stroke: #000000; stroke-width: 0.8"/>
      </g>
     </g>
    </g>
    <g id="xtick_20">
     <g id="line2d_62">
      <g>
       <use xlink:href="#m1e2fe81ecb" x="295.1246" y="319.193379" style="stroke: #000000; stroke-width: 0.8"/>
      </g>
     </g>
    </g>
   </g>
   <g id="matplotlib.axis_10">
    <g id="ytick_13">
     <g id="line2d_63">
      <g>
       <use xlink:href="#m8ae0c4ad13" x="70.5296" y="316.971204" style="stroke: #000000; stroke-width: 0.8"/>
      </g>
     </g>
     <g id="text_19">
      <text style="font-size: 6px; font-family: 'Arial', 'Helvetica', 'DejaVu Sans', sans-serif; text-anchor: end" x="63.5296" y="319.250735" transform="rotate(-0 63.5296 319.250735)">0.0</text>
     </g>
    </g>
    <g id="ytick_14">
     <g id="line2d_64">
      <g>
       <use xlink:href="#m8ae0c4ad13" x="70.5296" y="294.749454" style="stroke: #000000; stroke-width: 0.8"/>
      </g>
     </g>
     <g id="text_20">
      <text style="font-size: 6px; font-family: 'Arial', 'Helvetica', 'DejaVu Sans', sans-serif; text-anchor: end" x="63.5296" y="297.028985" transform="rotate(-0 63.5296 297.028985)">0.5</text>
     </g>
    </g>
    <g id="ytick_15">
     <g id="line2d_65">
      <g>
       <use xlink:href="#m8ae0c4ad13" x="70.5296" y="272.527703" style="stroke: #000000; stroke-width: 0.8"/>
      </g>
     </g>
     <g id="text_21">
      <text style="font-size: 6px; font-family: 'Arial', 'Helvetica', 'DejaVu Sans', sans-serif; text-anchor: end" x="63.5296" y="274.807234" transform="rotate(-0 63.5296 274.807234)">1.0</text>
     </g>
    </g>
    <g id="text_22">
     <!-- d$\theta$ (pitch) -->
     <g transform="translate(12.59 310.133931) rotate(-90)">
      <text>
       <tspan x="0" y="-0.625" style="font-size: 7px; font-family: 'DejaVu Sans'">d</tspan>
       <tspan x="8.726074" y="-0.625" style="font-size: 7px; font-family: 'DejaVu Sans'"> </tspan>
       <tspan x="10.951172" y="-0.625" style="font-size: 7px; font-family: 'DejaVu Sans'">(</tspan>
       <tspan x="13.682129" y="-0.625" style="font-size: 7px; font-family: 'DejaVu Sans'">p</tspan>
       <tspan x="18.125488" y="-0.625" style="font-size: 7px; font-family: 'DejaVu Sans'">i</tspan>
       <tspan x="20.070312" y="-0.625" style="font-size: 7px; font-family: 'DejaVu Sans'">t</tspan>
       <tspan x="22.814941" y="-0.625" style="font-size: 7px; font-family: 'DejaVu Sans'">c</tspan>
       <tspan x="26.663574" y="-0.625" style="font-size: 7px; font-family: 'DejaVu Sans'">h</tspan>
       <tspan x="31.100098" y="-0.625" style="font-size: 7px; font-family: 'DejaVu Sans'">)</tspan>
       <tspan x="4.443359" y="-0.625" style="font-style: oblique; font-size: 7px; font-family: 'DejaVu Sans'">θ</tspan>
      </text>
     </g>
    </g>
   </g>
   <g id="line2d_66">
    <path d="M 70.5296 316.867563 
L 73.20335 316.633254 
L 75.8771 316.05408 
L 78.55085 314.910328 
L 81.2246 313.075594 
L 83.89835 310.592684 
L 86.5721 307.606457 
L 89.24585 304.235624 
L 91.9196 300.515771 
L 94.59335 296.445863 
L 97.2671 292.081574 
L 99.94085 287.598982 
L 102.6146 283.27591 
L 105.28835 279.397644 
L 107.9621 276.158469 
L 110.63585 273.629478 
L 113.3096 271.79216 
L 115.98335 270.586712 
L 118.6571 269.941667 
L 121.33085 269.784053 
L 124.0046 270.035759 
L 126.67835 270.598479 
L 129.3521 271.335778 
L 132.02585 272.072054 
L 134.6996 272.627912 
L 134.6996 272.627912 
L 137.37335 272.885316 
L 140.0471 272.839524 
L 142.72085 272.594712 
L 145.3946 272.30516 
L 148.06835 272.104145 
L 150.7421 272.059244 
L 153.41585 272.161902 
L 156.0896 272.341523 
L 158.76335 272.498164 
L 161.4371 272.548279 
L 164.11085 272.464696 
L 166.7846 272.286476 
L 169.45835 272.092981 
L 172.1321 271.961784 
L 174.80585 271.935294 
L 177.4796 272.007536 
L 180.15335 272.130879 
L 182.8271 272.239198 
L 185.50085 272.279399 
L 188.1746 272.235881 
L 190.84835 272.13372 
L 193.5221 272.020331 
L 196.19585 271.938997 
L 198.8696 271.909155 
L 198.8696 271.909155 
L 201.54335 271.921113 
L 204.2171 271.945744 
L 206.89085 271.954051 
L 209.5646 271.936009 
L 212.23835 271.907215 
L 214.9121 271.899398 
L 217.58585 271.941211 
L 220.2596 272.039946 
L 222.93335 272.172251 
L 225.6071 272.288269 
L 228.28085 272.329922 
L 230.9546 272.25737 
L 233.62835 272.070478 
L 236.3021 271.812719 
L 238.97585 271.555567 
L 241.6496 271.372825 
L 244.32335 271.317053 
L 246.9971 271.405401 
L 249.67085 271.616721 
L 252.3446 271.899202 
L 255.01835 272.18637 
L 257.6921 272.417153 
L 260.36585 272.553656 
L 263.0396 272.59037 
L 263.0396 272.59037 
L 265.71335 272.551461 
L 268.3871 272.477654 
L 271.06085 272.408907 
L 273.7346 272.370729 
L 276.40835 272.369163 
L 279.0821 272.394232 
L 281.75585 272.427968 
L 284.4296 272.45294 
L 287.10335 272.458678 
L 289.7771 272.444588 
L 292.45085 272.418648 
L 295.1246 272.392707 
L 297.79835 272.376842 
L 300.4721 272.375508 
L 303.14585 272.386711 
L 305.8196 272.403648 
L 308.49335 272.417624 
L 311.1671 272.421342 
L 313.84085 272.41176 
L 316.5146 272.391642 
L 319.18835 272.369159 
L 321.8621 272.355913 
L 324.53585 272.364711 
L 327.2096 272.408628 
" clip-path="url(#pcbdeed5e38)" style="fill: none; stroke: #4a6fa5; stroke-width: 1.4; stroke-linecap: square"/>
   </g>
   <g id="line2d_67">
    <path d="M 70.5296 272.527703 
L 73.20335 272.527703 
L 75.8771 272.527703 
L 78.55085 272.527703 
L 81.2246 272.527703 
L 83.89835 272.527703 
L 86.5721 272.527703 
L 89.24585 272.527703 
L 91.9196 272.527703 
L 94.59335 272.527703 
L 97.2671 272.527703 
L 99.94085 272.527703 
L 102.6146 272.527703 
L 105.28835 272.527703 
L 107.9621 272.527703 
L 110.63585 272.527703 
L 113.3096 272.527703 
L 115.98335 272.527703 
L 118.6571 272.527703 
L 121.33085 272.527703 
L 124.0046 272.527703 
L 126.67835 272.527703 
L 129.3521 272.527703 
L 132.02585 272.527703 
L 134.6996 272.527703 
L 134.6996 272.527703 
L 137.37335 272.527703 
L 140.0471 272.527703 
L 142.72085 272.527703 
L 145.3946 272.527703 
L 148.06835 272.527703 
L 150.7421 272.527703 
L 153.41585 272.527703 
L 156.0896 272.527703 
L 158.76335 272.527703 
L 161.4371 272.527703 
L 164.11085 272.527703 
L 166.7846 272.527703 
L 169.45835 272.527703 
L 172.1321 272.527703 
L 174.80585 272.527703 
L 177.4796 272.527703 
L 180.15335 272.527703 
L 182.8271 272.527703 
L 185.50085 272.527703 
L 188.1746 272.527703 
L 190.84835 272.527703 
L 193.5221 272.527703 
L 196.19585 272.527703 
L 198.8696 272.527703 
L 198.8696 272.527703 
L 201.54335 272.527703 
L 204.2171 272.527703 
L 206.89085 272.527703 
L 209.5646 272.527703 
L 212.23835 272.527703 
L 214.9121 272.527703 
L 217.58585 272.527703 
L 220.2596 272.527703 
L 222.93335 272.527703 
L 225.6071 272.527703 
L 228.28085 272.527703 
L 230.9546 272.527703 
L 233.62835 272.527703 
L 236.3021 272.527703 
L 238.97585 272.527703 
L 241.6496 272.527703 
L 244.32335 272.527703 
L 246.9971 272.527703 
L 249.67085 272.527703 
L 252.3446 272.527703 
L 255.01835 272.527703 
L 257.6921 272.527703 
L 260.36585 272.527703 
L 263.0396 272.527703 
L 263.0396 272.527703 
L 265.71335 272.527703 
L 268.3871 272.527703 
L 271.06085 272.527703 
L 273.7346 272.527703 
L 276.40835 272.527703 
L 279.0821 272.527703 
L 281.75585 272.527703 
L 284.4296 272.527703 
L 287.10335 272.527703 
L 289.7771 272.527703 
L 292.45085 272.527703 
L 295.1246 272.527703 
L 297.79835 272.527703 
L 300.4721 272.527703 
L 303.14585 272.527703 
L 305.8196 272.527703 
L 308.49335 272.527703 
L 311.1671 272.527703 
L 313.84085 272.527703 
L 316.5146 272.527703 
L 319.18835 272.527703 
L 321.8621 272.527703 
L 324.53585 272.527703 
L 327.2096 272.527703 
" clip-path="url(#pcbdeed5e38)" style="fill: none; stroke-dasharray: 3.33,1.44; stroke-dashoffset: 0; stroke: #7f7f7f; stroke-width: 0.9"/>
   </g>
   <g id="patch_16">
    <path d="M 70.5296 319.193379 
L 70.5296 267.194483 
" style="fill: none; stroke: #000000; stroke-width: 0.8; stroke-linejoin: miter; stroke-linecap: square"/>
   </g>
   <g id="patch_17">
    <path d="M 70.5296 319.193379 
L 327.2096 319.193379 
" style="fill: none; stroke: #000000; stroke-width: 0.8; stroke-linejoin: miter; stroke-linecap: square"/>
   </g>
  </g>
  <g id="axes_6">
   <g id="patch_18">
    <path d="M 70.5296 384.192 
L 327.2096 384.192 
L 327.2096 332.193103 
L 70.5296 332.193103 
z
" style="fill: #ffffff"/>
   </g>
   <g id="line2d_68">
    <path d="M 70.5296 381.969825 
L 327.2096 381.969825 
" clip-path="url(#p3c236e2391)" style="fill: none; stroke: #cccccc; stroke-width: 0.6; stroke-linecap: square"/>
   </g>
   <g id="patch_19">
    <path d="M 198.8696 384.192 
L 263.0396 384.192 
L 263.0396 332.193103 
L 198.8696 332.193103 
z
" clip-path="url(#p3c236e2391)" style="fill: #f5b7b1; opacity: 0.25; stroke: #f5b7b1; stroke-linejoin: miter"/>
   </g>
   <g id="line2d_69">
    <path d="M 134.6996 384.192 
L 134.6996 332.193103 
" clip-path="url(#p3c236e2391)" style="fill: none; stroke-dasharray: 0.6,0.99; stroke-dashoffset: 0; stroke: #cccccc; stroke-width: 0.6"/>
   </g>
   <g id="line2d_70">
    <path d="M 198.8696 384.192 
L 198.8696 332.193103 
" clip-path="url(#p3c236e2391)" style="fill: none; stroke-dasharray: 0.6,0.99; stroke-dashoffset: 0; stroke: #cccccc; stroke-width: 0.6"/>
   </g>
   <g id="line2d_71">
    <path d="M 263.0396 384.192 
L 263.0396 332.193103 
" clip-path="url(#p3c236e2391)" style="fill: none; stroke-dasharray: 0.6,0.99; stroke-dashoffset: 0; stroke: #cccccc; stroke-width: 0.6"/>
   </g>
   <g id="FillBetweenPolyCollection_6">
    <defs>
     <path id="m34b4ae8560" d="M 70.5296 -62.434005 
L 70.5296 -62.340481 
L 73.20335 -62.447018 
L 75.8771 -62.661962 
L 78.55085 -63.108953 
L 81.2246 -63.897704 
L 83.89835 -65.092283 
L 86.5721 -66.908067 
L 89.24585 -69.477483 
L 91.9196 -72.079029 
L 94.59335 -74.679578 
L 97.2671 -77.756042 
L 99.94085 -81.524132 
L 102.6146 -85.672031 
L 105.28835 -89.961908 
L 107.9621 -94.126114 
L 110.63585 -97.70353 
L 113.3096 -100.416017 
L 115.98335 -102.032671 
L 118.6571 -101.878823 
L 121.33085 -100.76068 
L 124.0046 -100.332411 
L 126.67835 -101.185311 
L 129.3521 -103.058595 
L 132.02585 -105.147575 
L 134.6996 -106.432028 
L 134.6996 -106.432028 
L 137.37335 -106.459848 
L 140.0471 -106.463379 
L 142.72085 -106.472029 
L 145.3946 -106.440117 
L 148.06835 -106.084467 
L 150.7421 -105.910899 
L 153.41585 -106.146441 
L 156.0896 -106.536046 
L 158.76335 -106.56625 
L 161.4371 -106.56984 
L 164.11085 -106.595151 
L 166.7846 -106.622453 
L 169.45835 -106.437168 
L 172.1321 -106.276715 
L 174.80585 -106.350872 
L 177.4796 -106.593561 
L 180.15335 -106.708883 
L 182.8271 -106.633131 
L 185.50085 -106.579619 
L 188.1746 -106.590493 
L 190.84835 -106.594321 
L 193.5221 -106.535427 
L 196.19585 -106.578998 
L 198.8696 -106.60851 
L 198.8696 -106.60851 
L 201.54335 -106.344841 
L 204.2171 -105.430512 
L 206.89085 -103.803129 
L 209.5646 -101.228503 
L 212.23835 -97.513342 
L 214.9121 -92.811446 
L 217.58585 -87.583105 
L 220.2596 -82.387436 
L 222.93335 -77.696658 
L 225.6071 -73.81304 
L 228.28085 -70.84637 
L 230.9546 -68.742474 
L 233.62835 -67.361183 
L 236.3021 -66.543675 
L 238.97585 -66.145291 
L 241.6496 -66.040246 
L 244.32335 -66.10419 
L 246.9971 -66.203368 
L 249.67085 -66.229966 
L 252.3446 -66.140452 
L 255.01835 -65.939128 
L 257.6921 -65.681069 
L 260.36585 -65.462763 
L 263.0396 -65.354599 
L 263.0396 -65.354599 
L 265.71335 -65.372937 
L 268.3871 -65.487538 
L 271.06085 -65.632855 
L 273.7346 -65.734607 
L 276.40835 -65.746754 
L 279.0821 -65.665998 
L 281.75585 -65.529694 
L 284.4296 -65.40133 
L 287.10335 -65.335542 
L 289.7771 -65.352829 
L 292.45085 -65.435888 
L 295.1246 -65.537911 
L 297.79835 -65.603962 
L 300.4721 -65.598109 
L 303.14585 -65.515784 
L 305.8196 -65.384085 
L 308.49335 -65.253006 
L 311.1671 -65.171384 
L 313.84085 -65.164896 
L 316.5146 -65.226512 
L 319.18835 -65.31263 
L 321.8621 -65.349212 
L 324.53585 -65.248877 
L 327.2096 -64.92123 
L 327.2096 -65.849239 
L 327.2096 -65.849239 
L 324.53585 -66.061773 
L 321.8621 -66.14455 
L 319.18835 -66.130781 
L 316.5146 -66.09042 
L 313.84085 -66.070928 
L 311.1671 -66.092156 
L 308.49335 -66.155726 
L 305.8196 -66.249017 
L 303.14585 -66.346924 
L 300.4721 -66.415156 
L 297.79835 -66.426746 
L 295.1246 -66.386012 
L 292.45085 -66.32538 
L 289.7771 -66.280355 
L 287.10335 -66.275127 
L 284.4296 -66.318667 
L 281.75585 -66.402894 
L 279.0821 -66.501731 
L 276.40835 -66.571693 
L 273.7346 -66.571357 
L 271.06085 -66.499889 
L 268.3871 -66.398659 
L 265.71335 -66.316317 
L 263.0396 -66.289177 
L 263.0396 -66.289177 
L 260.36585 -66.33653 
L 257.6921 -66.459253 
L 255.01835 -66.641578 
L 252.3446 -66.839741 
L 249.67085 -66.978769 
L 246.9971 -67.03239 
L 244.32335 -67.063757 
L 241.6496 -67.16391 
L 238.97585 -67.424268 
L 236.3021 -67.951059 
L 233.62835 -68.87631 
L 230.9546 -70.3612 
L 228.28085 -72.577563 
L 225.6071 -75.653549 
L 222.93335 -79.60555 
L 220.2596 -84.277771 
L 217.58585 -89.299186 
L 214.9121 -94.1495 
L 212.23835 -98.365584 
L 209.5646 -101.711824 
L 206.89085 -104.143314 
L 204.2171 -105.664324 
L 201.54335 -106.430081 
L 198.8696 -106.822855 
L 198.8696 -106.822855 
L 196.19585 -106.92675 
L 193.5221 -106.849388 
L 190.84835 -106.732004 
L 188.1746 -106.819346 
L 185.50085 -106.985015 
L 182.8271 -107.028266 
L 180.15335 -106.901389 
L 177.4796 -106.827712 
L 174.80585 -106.854812 
L 172.1321 -106.833746 
L 169.45835 -106.778546 
L 166.7846 -106.848132 
L 164.11085 -107.126038 
L 161.4371 -107.232454 
L 158.76335 -107.058853 
L 156.0896 -106.69353 
L 153.41585 -106.647484 
L 150.7421 -106.659651 
L 148.06835 -106.652687 
L 145.3946 -106.814844 
L 142.72085 -107.394951 
L 140.0471 -107.775957 
L 137.37335 -107.643332 
L 134.6996 -106.880524 
L 134.6996 -106.880524 
L 132.02585 -106.739068 
L 129.3521 -107.052255 
L 126.67835 -107.365869 
L 124.0046 -107.4026 
L 121.33085 -106.992014 
L 118.6571 -106.263637 
L 115.98335 -105.993698 
L 113.3096 -106.085137 
L 110.63585 -105.257684 
L 107.9621 -102.959929 
L 105.28835 -98.917443 
L 102.6146 -93.289918 
L 99.94085 -87.251882 
L 97.2671 -82.087199 
L 94.59335 -77.97783 
L 91.9196 -74.701923 
L 89.24585 -72.052735 
L 86.5721 -69.770434 
L 83.89835 -67.458038 
L 81.2246 -65.394115 
L 78.55085 -63.905172 
L 75.8771 -63.019045 
L 73.20335 -62.586311 
L 70.5296 -62.434005 
z
"/>
    </defs>
    <g clip-path="url(#p3c236e2391)">
     <use xlink:href="#m34b4ae8560" x="0" y="444.27" style="fill: #c0392b; fill-opacity: 0.18"/>
    </g>
   </g>
   <g id="matplotlib.axis_11">
    <g id="xtick_21">
     <g id="line2d_72">
      <g>
       <use xlink:href="#m1e2fe81ecb" x="102.6146" y="384.192" style="stroke: #000000; stroke-width: 0.8"/>
      </g>
     </g>
     <g id="text_23">
      <text style="font-size: 6px; font-family: 'Arial', 'Helvetica', 'DejaVu Sans', sans-serif; text-anchor: middle" x="102.6146" y="395.751062" transform="rotate(-0 102.6146 395.751062)">align</text>
     </g>
    </g>
    <g id="xtick_22">
     <g id="line2d_73">
      <g>
       <use xlink:href="#m1e2fe81ecb" x="166.7846" y="384.192" style="stroke: #000000; stroke-width: 0.8"/>
      </g>
     </g>
     <g id="text_24">
      <text style="font-size: 6px; font-family: 'Arial', 'Helvetica', 'DejaVu Sans', sans-serif; text-anchor: middle" x="166.7846" y="395.751062" transform="rotate(-0 166.7846 395.751062)">enter</text>
     </g>
    </g>
    <g id="xtick_23">
     <g id="line2d_74">
      <g>
       <use xlink:href="#m1e2fe81ecb" x="230.9546" y="384.192" style="stroke: #000000; stroke-width: 0.8"/>
      </g>
     </g>
     <g id="text_25">
      <text style="font-size: 6px; font-family: 'Arial', 'Helvetica', 'DejaVu Sans', sans-serif; text-anchor: middle" x="230.9546" y="395.751062" transform="rotate(-0 230.9546 395.751062)">unlock</text>
     </g>
    </g>
    <g id="xtick_24">
     <g id="line2d_75">
      <g>
       <use xlink:href="#m1e2fe81ecb" x="295.1246" y="384.192" style="stroke: #000000; stroke-width: 0.8"/>
      </g>
     </g>
     <g id="text_26">
      <text style="font-size: 6px; font-family: 'Arial', 'Helvetica', 'DejaVu Sans', sans-serif; text-anchor: middle" x="295.1246" y="395.751062" transform="rotate(-0 295.1246 395.751062)">insert</text>
     </g>
    </g>
   </g>
   <g id="matplotlib.axis_12">
    <g id="ytick_16">
     <g id="line2d_76">
      <g>
       <use xlink:href="#m8ae0c4ad13" x="70.5296" y="381.969825" style="stroke: #000000; stroke-width: 0.8"/>
      </g>
     </g>
     <g id="text_27">
      <text style="font-size: 6px; font-family: 'Arial', 'Helvetica', 'DejaVu Sans', sans-serif; text-anchor: end" x="63.5296" y="384.249356" transform="rotate(-0 63.5296 384.249356)">0.0</text>
     </g>
    </g>
    <g id="ytick_17">
     <g id="line2d_77">
      <g>
       <use xlink:href="#m8ae0c4ad13" x="70.5296" y="359.748074" style="stroke: #000000; stroke-width: 0.8"/>
      </g>
     </g>
     <g id="text_28">
      <text style="font-size: 6px; font-family: 'Arial', 'Helvetica', 'DejaVu Sans', sans-serif; text-anchor: end" x="63.5296" y="362.027606" transform="rotate(-0 63.5296 362.027606)">0.5</text>
     </g>
    </g>
    <g id="ytick_18">
     <g id="line2d_78">
      <g>
       <use xlink:href="#m8ae0c4ad13" x="70.5296" y="337.526324" style="stroke: #000000; stroke-width: 0.8"/>
      </g>
     </g>
     <g id="text_29">
      <text style="font-size: 6px; font-family: 'Arial', 'Helvetica', 'DejaVu Sans', sans-serif; text-anchor: end" x="63.5296" y="339.805855" transform="rotate(-0 63.5296 339.805855)">1.0</text>
     </g>
    </g>
    <g id="text_30">
     <!-- d$\psi$ (yaw) -->
     <g style="fill: #c0392b" transform="translate(12.59 373.662552) rotate(-90)">
      <text>
       <tspan x="0" y="-0.6875" style="font-size: 7px; font-family: 'DejaVu Sans'; fill: #c0392b">d</tspan>
       <tspan x="9.061035" y="-0.6875" style="font-size: 7px; font-family: 'DejaVu Sans'; fill: #c0392b"> </tspan>
       <tspan x="11.286133" y="-0.6875" style="font-size: 7px; font-family: 'DejaVu Sans'; fill: #c0392b">(</tspan>
       <tspan x="14.01709" y="-0.6875" style="font-size: 7px; font-family: 'DejaVu Sans'; fill: #c0392b">y</tspan>
       <tspan x="18.159668" y="-0.6875" style="font-size: 7px; font-family: 'DejaVu Sans'; fill: #c0392b">a</tspan>
       <tspan x="22.449219" y="-0.6875" style="font-size: 7px; font-family: 'DejaVu Sans'; fill: #c0392b">w</tspan>
       <tspan x="28.174316" y="-0.6875" style="font-size: 7px; font-family: 'DejaVu Sans'; fill: #c0392b">)</tspan>
       <tspan x="4.443359" y="-0.6875" style="font-style: oblique; font-size: 7px; font-family: 'DejaVu Sans'; fill: #c0392b">ψ</tspan>
      </text>
     </g>
    </g>
   </g>
   <g id="line2d_79">
    <path d="M 70.5296 381.882757 
L 73.20335 381.753335 
L 75.8771 381.429497 
L 78.55085 380.762938 
L 81.2246 379.62409 
L 83.89835 377.99484 
L 86.5721 375.930749 
L 89.24585 373.504891 
L 91.9196 370.879524 
L 94.59335 367.941296 
L 97.2671 364.34838 
L 99.94085 359.881993 
L 102.6146 354.789026 
L 105.28835 349.830324 
L 107.9621 345.726978 
L 110.63585 342.789393 
L 113.3096 341.019423 
L 115.98335 340.256816 
L 118.6571 340.19877 
L 121.33085 340.393653 
L 124.0046 340.402495 
L 126.67835 339.99441 
L 129.3521 339.214575 
L 132.02585 338.326679 
L 134.6996 337.613724 
L 134.6996 337.613724 
L 137.37335 337.21841 
L 140.0471 337.150332 
L 142.72085 337.33651 
L 145.3946 337.64252 
L 148.06835 337.901423 
L 150.7421 337.984725 
L 153.41585 337.873038 
L 156.0896 337.655212 
L 158.76335 337.457449 
L 161.4371 337.368853 
L 164.11085 337.409405 
L 166.7846 337.534708 
L 169.45835 337.662143 
L 172.1321 337.714769 
L 174.80585 337.667158 
L 177.4796 337.559364 
L 180.15335 337.464864 
L 182.8271 337.439302 
L 185.50085 337.487683 
L 188.1746 337.56508 
L 190.84835 337.606838 
L 193.5221 337.577593 
L 196.19585 337.517126 
L 198.8696 337.554317 
L 198.8696 337.554317 
L 201.54335 337.882539 
L 204.2171 338.722582 
L 206.89085 340.296778 
L 209.5646 342.799836 
L 212.23835 346.330537 
L 214.9121 350.789527 
L 217.58585 355.828854 
L 220.2596 360.937396 
L 222.93335 365.618896 
L 225.6071 369.536705 
L 228.28085 372.558034 
L 230.9546 374.718163 
L 233.62835 376.151254 
L 236.3021 377.022633 
L 238.97585 377.48522 
L 241.6496 377.667922 
L 244.32335 377.686027 
L 246.9971 377.652121 
L 249.67085 377.665633 
L 252.3446 377.779903 
L 255.01835 377.979647 
L 257.6921 378.199839 
L 260.36585 378.370354 
L 263.0396 378.448112 
L 263.0396 378.448112 
L 265.71335 378.425373 
L 268.3871 378.326901 
L 271.06085 378.203628 
L 273.7346 378.117018 
L 276.40835 378.110776 
L 279.0821 378.186135 
L 281.75585 378.303706 
L 284.4296 378.410002 
L 287.10335 378.464665 
L 289.7771 378.453408 
L 292.45085 378.389366 
L 295.1246 378.308038 
L 297.79835 378.254646 
L 300.4721 378.263367 
L 303.14585 378.338646 
L 305.8196 378.453449 
L 308.49335 378.565634 
L 311.1671 378.63823 
L 313.84085 378.652088 
L 316.5146 378.611534 
L 319.18835 378.548295 
L 321.8621 378.523119 
L 324.53585 378.614675 
L 327.2096 378.884766 
" clip-path="url(#p3c236e2391)" style="fill: none; stroke: #c0392b; stroke-width: 1.4; stroke-linecap: square"/>
   </g>
   <g id="line2d_80">
    <path d="M 70.5296 337.526324 
L 73.20335 337.526324 
L 75.8771 337.526324 
L 78.55085 337.526324 
L 81.2246 337.526324 
L 83.89835 337.526324 
L 86.5721 337.526324 
L 89.24585 337.526324 
L 91.9196 337.526324 
L 94.59335 337.526324 
L 97.2671 337.526324 
L 99.94085 337.526324 
L 102.6146 337.526324 
L 105.28835 337.526324 
L 107.9621 337.526324 
L 110.63585 337.526324 
L 113.3096 337.526324 
L 115.98335 337.526324 
L 118.6571 337.526324 
L 121.33085 337.526324 
L 124.0046 337.526324 
L 126.67835 337.526324 
L 129.3521 337.526324 
L 132.02585 337.526324 
L 134.6996 337.526324 
L 134.6996 337.526324 
L 137.37335 337.526324 
L 140.0471 337.526324 
L 142.72085 337.526324 
L 145.3946 337.526324 
L 148.06835 337.526324 
L 150.7421 337.526324 
L 153.41585 337.526324 
L 156.0896 337.526324 
L 158.76335 337.526324 
L 161.4371 337.526324 
L 164.11085 337.526324 
L 166.7846 337.526324 
L 169.45835 337.526324 
L 172.1321 337.526324 
L 174.80585 337.526324 
L 177.4796 337.526324 
L 180.15335 337.526324 
L 182.8271 337.526324 
L 185.50085 337.526324 
L 188.1746 337.526324 
L 190.84835 337.526324 
L 193.5221 337.526324 
L 196.19585 337.526324 
L 198.8696 381.969825 
L 198.8696 381.969825 
L 201.54335 381.969825 
L 204.2171 381.969825 
L 206.89085 381.969825 
L 209.5646 381.969825 
L 212.23835 381.969825 
L 214.9121 381.969825 
L 217.58585 381.969825 
L 220.2596 381.969825 
L 222.93335 381.969825 
L 225.6071 381.969825 
L 228.28085 381.969825 
L 230.9546 381.969825 
L 233.62835 381.969825 
L 236.3021 381.969825 
L 238.97585 381.969825 
L 241.6496 381.969825 
L 244.32335 381.969825 
L 246.9971 381.969825 
L 249.67085 381.969825 
L 252.3446 381.969825 
L 255.01835 381.969825 
L 257.6921 381.969825 
L 260.36585 381.969825 
L 263.0396 381.969825 
L 263.0396 381.969825 
L 265.71335 381.969825 
L 268.3871 381.969825 
L 271.06085 381.969825 
L 273.7346 381.969825 
L 276.40835 381.969825 
L 279.0821 381.969825 
L 281.75585 381.969825 
L 284.4296 381.969825 
L 287.10335 381.969825 
L 289.7771 381.969825 
L 292.45085 381.969825 
L 295.1246 381.969825 
L 297.79835 381.969825 
L 300.4721 381.969825 
L 303.14585 381.969825 
L 305.8196 381.969825 
L 308.49335 381.969825 
L 311.1671 381.969825 
L 313.84085 381.969825 
L 316.5146 381.969825 
L 319.18835 381.969825 
L 321.8621 381.969825 
L 324.53585 381.969825 
L 327.2096 381.969825 
" clip-path="url(#p3c236e2391)" style="fill: none; stroke-dasharray: 3.33,1.44; stroke-dashoffset: 0; stroke: #7f7f7f; stroke-width: 0.9"/>
   </g>
   <g id="patch_20">
    <path d="M 70.5296 384.192 
L 70.5296 332.193103 
" style="fill: none; stroke: #000000; stroke-width: 0.8; stroke-linejoin: miter; stroke-linecap: square"/>
   </g>
   <g id="patch_21">
    <path d="M 70.5296 384.192 
L 327.2096 384.192 
" style="fill: none; stroke: #000000; stroke-width: 0.8; stroke-linejoin: miter; stroke-linecap: square"/>
   </g>
  </g>
  <g id="text_31">
   <!-- phase progress $s$ (four insertion phases) -->
   <g transform="translate(124.0296 435.6)">
    <text>
     <tspan x="0" y="-0.6875" style="font-size: 7px; font-family: 'DejaVu Sans'">p</tspan>
     <tspan x="4.443359" y="-0.6875" style="font-size: 7px; font-family: 'DejaVu Sans'">h</tspan>
     <tspan x="8.879883" y="-0.6875" style="font-size: 7px; font-family: 'DejaVu Sans'">a</tspan>
     <tspan x="13.169434" y="-0.6875" style="font-size: 7px; font-family: 'DejaVu Sans'">s</tspan>
     <tspan x="16.816406" y="-0.6875" style="font-size: 7px; font-family: 'DejaVu Sans'">e</tspan>
     <tspan x="21.123047" y="-0.6875" style="font-size: 7px; font-family: 'DejaVu Sans'"> </tspan>
     <tspan x="23.348145" y="-0.6875" style="font-size: 7px; font-family: 'DejaVu Sans'">p</tspan>
     <tspan x="27.791504" y="-0.6875" style="font-size: 7px; font-family: 'DejaVu Sans'">r</tspan>
     <tspan x="30.669434" y="-0.6875" style="font-size: 7px; font-family: 'DejaVu Sans'">o</tspan>
     <tspan x="34.952148" y="-0.6875" style="font-size: 7px; font-family: 'DejaVu Sans'">g</tspan>
     <tspan x="39.395508" y="-0.6875" style="font-size: 7px; font-family: 'DejaVu Sans'">r</tspan>
     <tspan x="42.273438" y="-0.6875" style="font-size: 7px; font-family: 'DejaVu Sans'">e</tspan>
     <tspan x="46.580078" y="-0.6875" style="font-size: 7px; font-family: 'DejaVu Sans'">s</tspan>
     <tspan x="50.227051" y="-0.6875" style="font-size: 7px; font-family: 'DejaVu Sans'">s</tspan>
     <tspan x="53.874023" y="-0.6875" style="font-size: 7px; font-family: 'DejaVu Sans'"> </tspan>
     <tspan x="59.746094" y="-0.6875" style="font-size: 7px; font-family: 'DejaVu Sans'"> </tspan>
     <tspan x="61.971191" y="-0.6875" style="font-size: 7px; font-family: 'DejaVu Sans'">(</tspan>
     <tspan x="64.702148" y="-0.6875" style="font-size: 7px; font-family: 'DejaVu Sans'">f</tspan>
     <tspan x="67.166504" y="-0.6875" style="font-size: 7px; font-family: 'DejaVu Sans'">o</tspan>
     <tspan x="71.449219" y="-0.6875" style="font-size: 7px; font-family: 'DejaVu Sans'">u</tspan>
     <tspan x="75.885742" y="-0.6875" style="font-size: 7px; font-family: 'DejaVu Sans'">r</tspan>
     <tspan x="78.763672" y="-0.6875" style="font-size: 7px; font-family: 'DejaVu Sans'"> </tspan>
     <tspan x="80.98877" y="-0.6875" style="font-size: 7px; font-family: 'DejaVu Sans'">i</tspan>
     <tspan x="82.933594" y="-0.6875" style="font-size: 7px; font-family: 'DejaVu Sans'">n</tspan>
     <tspan x="87.370117" y="-0.6875" style="font-size: 7px; font-family: 'DejaVu Sans'">s</tspan>
     <tspan x="91.01709" y="-0.6875" style="font-size: 7px; font-family: 'DejaVu Sans'">e</tspan>
     <tspan x="95.32373" y="-0.6875" style="font-size: 7px; font-family: 'DejaVu Sans'">r</tspan>
     <tspan x="98.20166" y="-0.6875" style="font-size: 7px; font-family: 'DejaVu Sans'">t</tspan>
     <tspan x="100.946289" y="-0.6875" style="font-size: 7px; font-family: 'DejaVu Sans'">i</tspan>
     <tspan x="102.891113" y="-0.6875" style="font-size: 7px; font-family: 'DejaVu Sans'">o</tspan>
     <tspan x="107.173828" y="-0.6875" style="font-size: 7px; font-family: 'DejaVu Sans'">n</tspan>
     <tspan x="111.610352" y="-0.6875" style="font-size: 7px; font-family: 'DejaVu Sans'"> </tspan>
     <tspan x="113.835449" y="-0.6875" style="font-size: 7px; font-family: 'DejaVu Sans'">p</tspan>
     <tspan x="118.278809" y="-0.6875" style="font-size: 7px; font-family: 'DejaVu Sans'">h</tspan>
     <tspan x="122.715332" y="-0.6875" style="font-size: 7px; font-family: 'DejaVu Sans'">a</tspan>
     <tspan x="127.004883" y="-0.6875" style="font-size: 7px; font-family: 'DejaVu Sans'">s</tspan>
     <tspan x="130.651855" y="-0.6875" style="font-size: 7px; font-family: 'DejaVu Sans'">e</tspan>
     <tspan x="134.958496" y="-0.6875" style="font-size: 7px; font-family: 'DejaVu Sans'">s</tspan>
     <tspan x="138.605469" y="-0.6875" style="font-size: 7px; font-family: 'DejaVu Sans'">)</tspan>
     <tspan x="56.099121" y="-0.6875" style="font-style: oblique; font-size: 7px; font-family: 'DejaVu Sans'">s</tspan>
    </text>
   </g>
  </g>
  <g id="text_32">
   <!-- generator relevance $\alpha_j(s)$ -->
   <g transform="translate(36.1056 237.628) rotate(-90)">
    <text>
     <tspan x="0" y="-0.6875" style="font-size: 7px; font-family: 'DejaVu Sans'">g</tspan>
     <tspan x="4.443359" y="-0.6875" style="font-size: 7px; font-family: 'DejaVu Sans'">e</tspan>
     <tspan x="8.75" y="-0.6875" style="font-size: 7px; font-family: 'DejaVu Sans'">n</tspan>
     <tspan x="13.186523" y="-0.6875" style="font-size: 7px; font-family: 'DejaVu Sans'">e</tspan>
     <tspan x="17.493164" y="-0.6875" style="font-size: 7px; font-family: 'DejaVu Sans'">r</tspan>
     <tspan x="20.371094" y="-0.6875" style="font-size: 7px; font-family: 'DejaVu Sans'">a</tspan>
     <tspan x="24.660645" y="-0.6875" style="font-size: 7px; font-family: 'DejaVu Sans'">t</tspan>
     <tspan x="27.405273" y="-0.6875" style="font-size: 7px; font-family: 'DejaVu Sans'">o</tspan>
     <tspan x="31.687988" y="-0.6875" style="font-size: 7px; font-family: 'DejaVu Sans'">r</tspan>
     <tspan x="34.565918" y="-0.6875" style="font-size: 7px; font-family: 'DejaVu Sans'"> </tspan>
     <tspan x="36.791016" y="-0.6875" style="font-size: 7px; font-family: 'DejaVu Sans'">r</tspan>
     <tspan x="39.668945" y="-0.6875" style="font-size: 7px; font-family: 'DejaVu Sans'">e</tspan>
     <tspan x="43.975586" y="-0.6875" style="font-size: 7px; font-family: 'DejaVu Sans'">l</tspan>
     <tspan x="45.92041" y="-0.6875" style="font-size: 7px; font-family: 'DejaVu Sans'">e</tspan>
     <tspan x="50.227051" y="-0.6875" style="font-size: 7px; font-family: 'DejaVu Sans'">v</tspan>
     <tspan x="54.369629" y="-0.6875" style="font-size: 7px; font-family: 'DejaVu Sans'">a</tspan>
     <tspan x="58.65918" y="-0.6875" style="font-size: 7px; font-family: 'DejaVu Sans'">n</tspan>
     <tspan x="63.095703" y="-0.6875" style="font-size: 7px; font-family: 'DejaVu Sans'">c</tspan>
     <tspan x="66.944336" y="-0.6875" style="font-size: 7px; font-family: 'DejaVu Sans'">e</tspan>
     <tspan x="71.250977" y="-0.6875" style="font-size: 7px; font-family: 'DejaVu Sans'"> </tspan>
     <tspan x="79.643115" y="-0.6875" style="font-size: 7px; font-family: 'DejaVu Sans'">(</tspan>
     <tspan x="86.021045" y="-0.6875" style="font-size: 7px; font-family: 'DejaVu Sans'">)</tspan>
     <tspan x="73.476074" y="-0.6875" style="font-style: oblique; font-size: 7px; font-family: 'DejaVu Sans'">α</tspan>
     <tspan x="82.374072" y="-0.6875" style="font-style: oblique; font-size: 7px; font-family: 'DejaVu Sans'">s</tspan>
     <tspan x="78.090332" y="0.460938" style="font-style: oblique; font-size: 4.9px; font-family: 'DejaVu Sans'">j</tspan>
    </text>
   </g>
  </g>
 </g>
 <defs>
  <clipPath id="pb7951b10da">
   <rect x="70.5296" y="7.2" width="256.68" height="51.998897"/>
  </clipPath>
  <clipPath id="p6a6a864cb7">
   <rect x="70.5296" y="72.198621" width="256.68" height="51.998897"/>
  </clipPath>
  <clipPath id="p93059d1f5e">
   <rect x="70.5296" y="137.197241" width="256.68" height="51.998897"/>
  </clipPath>
  <clipPath id="p449a82ed92">
   <rect x="70.5296" y="202.195862" width="256.68" height="51.998897"/>
  </clipPath>
  <clipPath id="pcbdeed5e38">
   <rect x="70.5296" y="267.194483" width="256.68" height="51.998897"/>
  </clipPath>
  <clipPath id="p3c236e2391">
   <rect x="70.5296" y="332.193103" width="256.68" height="51.998897"/>
  </clipPath>
 </defs>
</svg>
